<?xml version="1.0" encoding="utf-8" standalone="no"?>
<!DOCTYPE svg PUBLIC "-//W3C//DTD SVG 1.1//EN"
  "http://www.w3.org/Graphics/SVG/1.1/DTD/svg11.dtd">
<!-- Created with matplotlib (https://matplotlib.org/) -->
<svg height="288pt" version="1.1" viewBox="0 0 432 288" width="432pt" xmlns="http://www.w3.org/2000/svg" xmlns:xlink="http://www.w3.org/1999/xlink">
 <defs>
  <style type="text/css">
*{stroke-linecap:butt;stroke-linejoin:round;}
  </style>
 </defs>
 <g id="figure_1">
  <g id="patch_1">
   <path d="M 0 288 
L 432 288 
L 432 0 
L 0 0 
z
" style="fill:#ffffff;"/>
  </g>
  <g id="axes_1">
   <g id="patch_2">
    <path d="M 54 252 
L 388.8 252 
L 388.8 34.56 
L 54 34.56 
z
" style="fill:#ffffff;"/>
   </g>
   <g id="patch_3">
    <path clip-path="url(#p1ccfb6e3f4)" d="M 69.218182 252 
L 70.732429 252 
L 70.732429 252 
L 69.218182 252 
z
" style="fill:#051c2c;"/>
   </g>
   <g id="patch_4">
    <path clip-path="url(#p1ccfb6e3f4)" d="M 72.246676 252 
L 73.760923 252 
L 73.760923 182.971429 
L 72.246676 182.971429 
z
" style="fill:#051c2c;"/>
   </g>
   <g id="patch_5">
    <path clip-path="url(#p1ccfb6e3f4)" d="M 75.27517 252 
L 76.789417 252 
L 76.789417 182.971429 
L 75.27517 182.971429 
z
" style="fill:#051c2c;"/>
   </g>
   <g id="patch_6">
    <path clip-path="url(#p1ccfb6e3f4)" d="M 78.303664 252 
L 79.81791 252 
L 79.81791 182.971429 
L 78.303664 182.971429 
z
" style="fill:#051c2c;"/>
   </g>
   <g id="patch_7">
    <path clip-path="url(#p1ccfb6e3f4)" d="M 81.332157 252 
L 82.846404 252 
L 82.846404 183.523657 
L 81.332157 183.523657 
z
" style="fill:#051c2c;"/>
   </g>
   <g id="patch_8">
    <path clip-path="url(#p1ccfb6e3f4)" d="M 84.360651 252 
L 85.874898 252 
L 85.874898 193.739886 
L 84.360651 193.739886 
z
" style="fill:#051c2c;"/>
   </g>
   <g id="patch_9">
    <path clip-path="url(#p1ccfb6e3f4)" d="M 87.389145 252 
L 88.903392 252 
L 88.903392 198.571886 
L 87.389145 198.571886 
z
" style="fill:#051c2c;"/>
   </g>
   <g id="patch_10">
    <path clip-path="url(#p1ccfb6e3f4)" d="M 90.417639 252 
L 91.931886 252 
L 91.931886 198.848 
L 90.417639 198.848 
z
" style="fill:#051c2c;"/>
   </g>
   <g id="patch_11">
    <path clip-path="url(#p1ccfb6e3f4)" d="M 93.446133 252 
L 94.96038 252 
L 94.96038 205.336686 
L 93.446133 205.336686 
z
" style="fill:#051c2c;"/>
   </g>
   <g id="patch_12">
    <path clip-path="url(#p1ccfb6e3f4)" d="M 96.474627 252 
L 97.988874 252 
L 97.988874 198.848 
L 96.474627 198.848 
z
" style="fill:#051c2c;"/>
   </g>
   <g id="patch_13">
    <path clip-path="url(#p1ccfb6e3f4)" d="M 99.503121 252 
L 101.017368 252 
L 101.017368 201.194971 
L 99.503121 201.194971 
z
" style="fill:#051c2c;"/>
   </g>
   <g id="patch_14">
    <path clip-path="url(#p1ccfb6e3f4)" d="M 102.531615 252 
L 104.045862 252 
L 104.045862 182.971429 
L 102.531615 182.971429 
z
" style="fill:#051c2c;"/>
   </g>
   <g id="patch_15">
    <path clip-path="url(#p1ccfb6e3f4)" d="M 105.560109 252 
L 107.074355 252 
L 107.074355 199.8144 
L 105.560109 199.8144 
z
" style="fill:#051c2c;"/>
   </g>
   <g id="patch_16">
    <path clip-path="url(#p1ccfb6e3f4)" d="M 108.588602 252 
L 110.102849 252 
L 110.102849 189.184 
L 108.588602 189.184 
z
" style="fill:#051c2c;"/>
   </g>
   <g id="patch_17">
    <path clip-path="url(#p1ccfb6e3f4)" d="M 111.617096 252 
L 113.131343 252 
L 113.131343 182.971429 
L 111.617096 182.971429 
z
" style="fill:#051c2c;"/>
   </g>
   <g id="patch_18">
    <path clip-path="url(#p1ccfb6e3f4)" d="M 114.64559 252 
L 116.159837 252 
L 116.159837 182.971429 
L 114.64559 182.971429 
z
" style="fill:#051c2c;"/>
   </g>
   <g id="patch_19">
    <path clip-path="url(#p1ccfb6e3f4)" d="M 117.674084 252 
L 119.188331 252 
L 119.188331 182.971429 
L 117.674084 182.971429 
z
" style="fill:#051c2c;"/>
   </g>
   <g id="patch_20">
    <path clip-path="url(#p1ccfb6e3f4)" d="M 120.702578 252 
L 122.216825 252 
L 122.216825 182.971429 
L 120.702578 182.971429 
z
" style="fill:#051c2c;"/>
   </g>
   <g id="patch_21">
    <path clip-path="url(#p1ccfb6e3f4)" d="M 123.731072 252 
L 125.245319 252 
L 125.245319 182.971429 
L 123.731072 182.971429 
z
" style="fill:#051c2c;"/>
   </g>
   <g id="patch_22">
    <path clip-path="url(#p1ccfb6e3f4)" d="M 126.759566 252 
L 128.273813 252 
L 128.273813 182.971429 
L 126.759566 182.971429 
z
" style="fill:#051c2c;"/>
   </g>
   <g id="patch_23">
    <path clip-path="url(#p1ccfb6e3f4)" d="M 129.78806 252 
L 131.302307 252 
L 131.302307 182.971429 
L 129.78806 182.971429 
z
" style="fill:#051c2c;"/>
   </g>
   <g id="patch_24">
    <path clip-path="url(#p1ccfb6e3f4)" d="M 132.816554 252 
L 134.330801 252 
L 134.330801 182.971429 
L 132.816554 182.971429 
z
" style="fill:#051c2c;"/>
   </g>
   <g id="patch_25">
    <path clip-path="url(#p1ccfb6e3f4)" d="M 135.845047 252 
L 137.359294 252 
L 137.359294 182.971429 
L 135.845047 182.971429 
z
" style="fill:#051c2c;"/>
   </g>
   <g id="patch_26">
    <path clip-path="url(#p1ccfb6e3f4)" d="M 138.873541 252 
L 140.387788 252 
L 140.387788 182.971429 
L 138.873541 182.971429 
z
" style="fill:#051c2c;"/>
   </g>
   <g id="patch_27">
    <path clip-path="url(#p1ccfb6e3f4)" d="M 141.902035 252 
L 143.416282 252 
L 143.416282 182.971429 
L 141.902035 182.971429 
z
" style="fill:#051c2c;"/>
   </g>
   <g id="patch_28">
    <path clip-path="url(#p1ccfb6e3f4)" d="M 144.930529 252 
L 146.444776 252 
L 146.444776 182.971429 
L 144.930529 182.971429 
z
" style="fill:#051c2c;"/>
   </g>
   <g id="patch_29">
    <path clip-path="url(#p1ccfb6e3f4)" d="M 147.959023 252 
L 149.47327 252 
L 149.47327 182.971429 
L 147.959023 182.971429 
z
" style="fill:#051c2c;"/>
   </g>
   <g id="patch_30">
    <path clip-path="url(#p1ccfb6e3f4)" d="M 150.987517 252 
L 152.501764 252 
L 152.501764 182.971429 
L 150.987517 182.971429 
z
" style="fill:#051c2c;"/>
   </g>
   <g id="patch_31">
    <path clip-path="url(#p1ccfb6e3f4)" d="M 154.016011 252 
L 155.530258 252 
L 155.530258 182.971429 
L 154.016011 182.971429 
z
" style="fill:#051c2c;"/>
   </g>
   <g id="patch_32">
    <path clip-path="url(#p1ccfb6e3f4)" d="M 157.044505 252 
L 158.558752 252 
L 158.558752 182.971429 
L 157.044505 182.971429 
z
" style="fill:#051c2c;"/>
   </g>
   <g id="patch_33">
    <path clip-path="url(#p1ccfb6e3f4)" d="M 160.072999 252 
L 161.587246 252 
L 161.587246 182.971429 
L 160.072999 182.971429 
z
" style="fill:#051c2c;"/>
   </g>
   <g id="patch_34">
    <path clip-path="url(#p1ccfb6e3f4)" d="M 163.101493 252 
L 164.615739 252 
L 164.615739 182.971429 
L 163.101493 182.971429 
z
" style="fill:#051c2c;"/>
   </g>
   <g id="patch_35">
    <path clip-path="url(#p1ccfb6e3f4)" d="M 166.129986 252 
L 167.644233 252 
L 167.644233 182.971429 
L 166.129986 182.971429 
z
" style="fill:#051c2c;"/>
   </g>
   <g id="patch_36">
    <path clip-path="url(#p1ccfb6e3f4)" d="M 169.15848 252 
L 170.672727 252 
L 170.672727 182.971429 
L 169.15848 182.971429 
z
" style="fill:#051c2c;"/>
   </g>
   <g id="patch_37">
    <path clip-path="url(#p1ccfb6e3f4)" d="M 172.186974 252 
L 173.701221 252 
L 173.701221 182.971429 
L 172.186974 182.971429 
z
" style="fill:#051c2c;"/>
   </g>
   <g id="patch_38">
    <path clip-path="url(#p1ccfb6e3f4)" d="M 175.215468 252 
L 176.729715 252 
L 176.729715 182.971429 
L 175.215468 182.971429 
z
" style="fill:#051c2c;"/>
   </g>
   <g id="patch_39">
    <path clip-path="url(#p1ccfb6e3f4)" d="M 178.243962 252 
L 179.758209 252 
L 179.758209 182.971429 
L 178.243962 182.971429 
z
" style="fill:#051c2c;"/>
   </g>
   <g id="patch_40">
    <path clip-path="url(#p1ccfb6e3f4)" d="M 181.272456 252 
L 182.786703 252 
L 182.786703 182.971429 
L 181.272456 182.971429 
z
" style="fill:#051c2c;"/>
   </g>
   <g id="patch_41">
    <path clip-path="url(#p1ccfb6e3f4)" d="M 184.30095 252 
L 185.815197 252 
L 185.815197 182.971429 
L 184.30095 182.971429 
z
" style="fill:#051c2c;"/>
   </g>
   <g id="patch_42">
    <path clip-path="url(#p1ccfb6e3f4)" d="M 187.329444 252 
L 188.843691 252 
L 188.843691 182.971429 
L 187.329444 182.971429 
z
" style="fill:#051c2c;"/>
   </g>
   <g id="patch_43">
    <path clip-path="url(#p1ccfb6e3f4)" d="M 190.357938 252 
L 191.872185 252 
L 191.872185 182.971429 
L 190.357938 182.971429 
z
" style="fill:#051c2c;"/>
   </g>
   <g id="patch_44">
    <path clip-path="url(#p1ccfb6e3f4)" d="M 193.386431 252 
L 194.900678 252 
L 194.900678 182.971429 
L 193.386431 182.971429 
z
" style="fill:#051c2c;"/>
   </g>
   <g id="patch_45">
    <path clip-path="url(#p1ccfb6e3f4)" d="M 196.414925 252 
L 197.929172 252 
L 197.929172 182.971429 
L 196.414925 182.971429 
z
" style="fill:#051c2c;"/>
   </g>
   <g id="patch_46">
    <path clip-path="url(#p1ccfb6e3f4)" d="M 199.443419 252 
L 200.957666 252 
L 200.957666 182.971429 
L 199.443419 182.971429 
z
" style="fill:#051c2c;"/>
   </g>
   <g id="patch_47">
    <path clip-path="url(#p1ccfb6e3f4)" d="M 202.471913 252 
L 203.98616 252 
L 203.98616 188.079543 
L 202.471913 188.079543 
z
" style="fill:#051c2c;"/>
   </g>
   <g id="patch_48">
    <path clip-path="url(#p1ccfb6e3f4)" d="M 205.500407 252 
L 207.014654 252 
L 207.014654 182.971429 
L 205.500407 182.971429 
z
" style="fill:#051c2c;"/>
   </g>
   <g id="patch_49">
    <path clip-path="url(#p1ccfb6e3f4)" d="M 208.528901 252 
L 210.043148 252 
L 210.043148 182.971429 
L 208.528901 182.971429 
z
" style="fill:#051c2c;"/>
   </g>
   <g id="patch_50">
    <path clip-path="url(#p1ccfb6e3f4)" d="M 211.557395 252 
L 213.071642 252 
L 213.071642 186.698971 
L 211.557395 186.698971 
z
" style="fill:#051c2c;"/>
   </g>
   <g id="patch_51">
    <path clip-path="url(#p1ccfb6e3f4)" d="M 214.585889 252 
L 216.100136 252 
L 216.100136 182.971429 
L 214.585889 182.971429 
z
" style="fill:#051c2c;"/>
   </g>
   <g id="patch_52">
    <path clip-path="url(#p1ccfb6e3f4)" d="M 217.614383 252 
L 219.12863 252 
L 219.12863 201.609143 
L 217.614383 201.609143 
z
" style="fill:#051c2c;"/>
   </g>
   <g id="patch_53">
    <path clip-path="url(#p1ccfb6e3f4)" d="M 220.642877 252 
L 222.157123 252 
L 222.157123 182.971429 
L 220.642877 182.971429 
z
" style="fill:#051c2c;"/>
   </g>
   <g id="patch_54">
    <path clip-path="url(#p1ccfb6e3f4)" d="M 223.67137 252 
L 225.185617 252 
L 225.185617 182.971429 
L 223.67137 182.971429 
z
" style="fill:#051c2c;"/>
   </g>
   <g id="patch_55">
    <path clip-path="url(#p1ccfb6e3f4)" d="M 226.699864 252 
L 228.214111 252 
L 228.214111 201.333029 
L 226.699864 201.333029 
z
" style="fill:#051c2c;"/>
   </g>
   <g id="patch_56">
    <path clip-path="url(#p1ccfb6e3f4)" d="M 229.728358 252 
L 231.242605 252 
L 231.242605 201.056914 
L 229.728358 201.056914 
z
" style="fill:#051c2c;"/>
   </g>
   <g id="patch_57">
    <path clip-path="url(#p1ccfb6e3f4)" d="M 232.756852 252 
L 234.271099 252 
L 234.271099 187.527314 
L 232.756852 187.527314 
z
" style="fill:#051c2c;"/>
   </g>
   <g id="patch_58">
    <path clip-path="url(#p1ccfb6e3f4)" d="M 235.785346 252 
L 237.299593 252 
L 237.299593 182.971429 
L 235.785346 182.971429 
z
" style="fill:#051c2c;"/>
   </g>
   <g id="patch_59">
    <path clip-path="url(#p1ccfb6e3f4)" d="M 238.81384 252 
L 240.328087 252 
L 240.328087 191.392914 
L 238.81384 191.392914 
z
" style="fill:#051c2c;"/>
   </g>
   <g id="patch_60">
    <path clip-path="url(#p1ccfb6e3f4)" d="M 241.842334 252 
L 243.356581 252 
L 243.356581 208.512 
L 241.842334 208.512 
z
" style="fill:#051c2c;"/>
   </g>
   <g id="patch_61">
    <path clip-path="url(#p1ccfb6e3f4)" d="M 244.870828 252 
L 246.385075 252 
L 246.385075 227.701943 
L 244.870828 227.701943 
z
" style="fill:#051c2c;"/>
   </g>
   <g id="patch_62">
    <path clip-path="url(#p1ccfb6e3f4)" d="M 247.899322 252 
L 249.413569 252 
L 249.413569 207.5456 
L 247.899322 207.5456 
z
" style="fill:#051c2c;"/>
   </g>
   <g id="patch_63">
    <path clip-path="url(#p1ccfb6e3f4)" d="M 250.927815 252 
L 252.442062 252 
L 252.442062 215.967086 
L 250.927815 215.967086 
z
" style="fill:#051c2c;"/>
   </g>
   <g id="patch_64">
    <path clip-path="url(#p1ccfb6e3f4)" d="M 253.956309 252 
L 255.470556 252 
L 255.470556 228.254171 
L 253.956309 228.254171 
z
" style="fill:#051c2c;"/>
   </g>
   <g id="patch_65">
    <path clip-path="url(#p1ccfb6e3f4)" d="M 256.984803 252 
L 258.49905 252 
L 258.49905 236.5376 
L 256.984803 236.5376 
z
" style="fill:#051c2c;"/>
   </g>
   <g id="patch_66">
    <path clip-path="url(#p1ccfb6e3f4)" d="M 260.013297 252 
L 261.527544 252 
L 261.527544 221.0752 
L 260.013297 221.0752 
z
" style="fill:#051c2c;"/>
   </g>
   <g id="patch_67">
    <path clip-path="url(#p1ccfb6e3f4)" d="M 263.041791 252 
L 264.556038 252 
L 264.556038 217.899886 
L 263.041791 217.899886 
z
" style="fill:#051c2c;"/>
   </g>
   <g id="patch_68">
    <path clip-path="url(#p1ccfb6e3f4)" d="M 266.070285 252 
L 267.584532 252 
L 267.584532 216.519314 
L 266.070285 216.519314 
z
" style="fill:#051c2c;"/>
   </g>
   <g id="patch_69">
    <path clip-path="url(#p1ccfb6e3f4)" d="M 269.098779 252 
L 270.613026 252 
L 270.613026 212.3776 
L 269.098779 212.3776 
z
" style="fill:#051c2c;"/>
   </g>
   <g id="patch_70">
    <path clip-path="url(#p1ccfb6e3f4)" d="M 272.127273 252 
L 273.64152 252 
L 273.64152 222.317714 
L 272.127273 222.317714 
z
" style="fill:#051c2c;"/>
   </g>
   <g id="patch_71">
    <path clip-path="url(#p1ccfb6e3f4)" d="M 275.155767 252 
L 276.670014 252 
L 276.670014 224.526629 
L 275.155767 224.526629 
z
" style="fill:#051c2c;"/>
   </g>
   <g id="patch_72">
    <path clip-path="url(#p1ccfb6e3f4)" d="M 278.184261 252 
L 279.698507 252 
L 279.698507 250.895543 
L 278.184261 250.895543 
z
" style="fill:#051c2c;"/>
   </g>
   <g id="patch_73">
    <path clip-path="url(#p1ccfb6e3f4)" d="M 281.212754 252 
L 282.727001 252 
L 282.727001 251.447771 
L 281.212754 251.447771 
z
" style="fill:#051c2c;"/>
   </g>
   <g id="patch_74">
    <path clip-path="url(#p1ccfb6e3f4)" d="M 284.241248 252 
L 285.755495 252 
L 285.755495 250.0672 
L 284.241248 250.0672 
z
" style="fill:#051c2c;"/>
   </g>
   <g id="patch_75">
    <path clip-path="url(#p1ccfb6e3f4)" d="M 287.269742 252 
L 288.783989 252 
L 288.783989 251.723886 
L 287.269742 251.723886 
z
" style="fill:#051c2c;"/>
   </g>
   <g id="patch_76">
    <path clip-path="url(#p1ccfb6e3f4)" d="M 290.298236 252 
L 291.812483 252 
L 291.812483 251.585829 
L 290.298236 251.585829 
z
" style="fill:#051c2c;"/>
   </g>
   <g id="patch_77">
    <path clip-path="url(#p1ccfb6e3f4)" d="M 293.32673 252 
L 294.840977 252 
L 294.840977 248.824686 
L 293.32673 248.824686 
z
" style="fill:#051c2c;"/>
   </g>
   <g id="patch_78">
    <path clip-path="url(#p1ccfb6e3f4)" d="M 296.355224 252 
L 297.869471 252 
L 297.869471 249.791086 
L 296.355224 249.791086 
z
" style="fill:#051c2c;"/>
   </g>
   <g id="patch_79">
    <path clip-path="url(#p1ccfb6e3f4)" d="M 299.383718 252 
L 300.897965 252 
L 300.897965 251.309714 
L 299.383718 251.309714 
z
" style="fill:#051c2c;"/>
   </g>
   <g id="patch_80">
    <path clip-path="url(#p1ccfb6e3f4)" d="M 302.412212 252 
L 303.926459 252 
L 303.926459 250.343314 
L 302.412212 250.343314 
z
" style="fill:#051c2c;"/>
   </g>
   <g id="patch_81">
    <path clip-path="url(#p1ccfb6e3f4)" d="M 305.440706 252 
L 306.954953 252 
L 306.954953 251.309714 
L 305.440706 251.309714 
z
" style="fill:#051c2c;"/>
   </g>
   <g id="patch_82">
    <path clip-path="url(#p1ccfb6e3f4)" d="M 308.469199 252 
L 309.983446 252 
L 309.983446 249.791086 
L 308.469199 249.791086 
z
" style="fill:#051c2c;"/>
   </g>
   <g id="patch_83">
    <path clip-path="url(#p1ccfb6e3f4)" d="M 311.497693 252 
L 313.01194 252 
L 313.01194 251.861943 
L 311.497693 251.861943 
z
" style="fill:#051c2c;"/>
   </g>
   <g id="patch_84">
    <path clip-path="url(#p1ccfb6e3f4)" d="M 314.526187 252 
L 316.040434 252 
L 316.040434 250.757486 
L 314.526187 250.757486 
z
" style="fill:#051c2c;"/>
   </g>
   <g id="patch_85">
    <path clip-path="url(#p1ccfb6e3f4)" d="M 317.554681 252 
L 319.068928 252 
L 319.068928 251.723886 
L 317.554681 251.723886 
z
" style="fill:#051c2c;"/>
   </g>
   <g id="patch_86">
    <path clip-path="url(#p1ccfb6e3f4)" d="M 320.583175 252 
L 322.097422 252 
L 322.097422 251.723886 
L 320.583175 251.723886 
z
" style="fill:#051c2c;"/>
   </g>
   <g id="patch_87">
    <path clip-path="url(#p1ccfb6e3f4)" d="M 323.611669 252 
L 325.125916 252 
L 325.125916 248.824686 
L 323.611669 248.824686 
z
" style="fill:#051c2c;"/>
   </g>
   <g id="patch_88">
    <path clip-path="url(#p1ccfb6e3f4)" d="M 326.640163 252 
L 328.15441 252 
L 328.15441 250.481371 
L 326.640163 250.481371 
z
" style="fill:#051c2c;"/>
   </g>
   <g id="patch_89">
    <path clip-path="url(#p1ccfb6e3f4)" d="M 329.668657 252 
L 331.182904 252 
L 331.182904 251.861943 
L 329.668657 251.861943 
z
" style="fill:#051c2c;"/>
   </g>
   <g id="patch_90">
    <path clip-path="url(#p1ccfb6e3f4)" d="M 332.697151 252 
L 334.211398 252 
L 334.211398 251.309714 
L 332.697151 251.309714 
z
" style="fill:#051c2c;"/>
   </g>
   <g id="patch_91">
    <path clip-path="url(#p1ccfb6e3f4)" d="M 335.725645 252 
L 337.239891 252 
L 337.239891 251.447771 
L 335.725645 251.447771 
z
" style="fill:#051c2c;"/>
   </g>
   <g id="patch_92">
    <path clip-path="url(#p1ccfb6e3f4)" d="M 338.754138 252 
L 340.268385 252 
L 340.268385 250.205257 
L 338.754138 250.205257 
z
" style="fill:#051c2c;"/>
   </g>
   <g id="patch_93">
    <path clip-path="url(#p1ccfb6e3f4)" d="M 341.782632 252 
L 343.296879 252 
L 343.296879 251.861943 
L 341.782632 251.861943 
z
" style="fill:#051c2c;"/>
   </g>
   <g id="patch_94">
    <path clip-path="url(#p1ccfb6e3f4)" d="M 344.811126 252 
L 346.325373 252 
L 346.325373 251.585829 
L 344.811126 251.585829 
z
" style="fill:#051c2c;"/>
   </g>
   <g id="patch_95">
    <path clip-path="url(#p1ccfb6e3f4)" d="M 347.83962 252 
L 349.353867 252 
L 349.353867 251.861943 
L 347.83962 251.861943 
z
" style="fill:#051c2c;"/>
   </g>
   <g id="patch_96">
    <path clip-path="url(#p1ccfb6e3f4)" d="M 350.868114 252 
L 352.382361 252 
L 352.382361 252 
L 350.868114 252 
z
" style="fill:#051c2c;"/>
   </g>
   <g id="patch_97">
    <path clip-path="url(#p1ccfb6e3f4)" d="M 353.896608 252 
L 355.410855 252 
L 355.410855 251.585829 
L 353.896608 251.585829 
z
" style="fill:#051c2c;"/>
   </g>
   <g id="patch_98">
    <path clip-path="url(#p1ccfb6e3f4)" d="M 356.925102 252 
L 358.439349 252 
L 358.439349 251.171657 
L 356.925102 251.171657 
z
" style="fill:#051c2c;"/>
   </g>
   <g id="patch_99">
    <path clip-path="url(#p1ccfb6e3f4)" d="M 359.953596 252 
L 361.467843 252 
L 361.467843 252 
L 359.953596 252 
z
" style="fill:#051c2c;"/>
   </g>
   <g id="patch_100">
    <path clip-path="url(#p1ccfb6e3f4)" d="M 362.98209 252 
L 364.496336 252 
L 364.496336 251.723886 
L 362.98209 251.723886 
z
" style="fill:#051c2c;"/>
   </g>
   <g id="patch_101">
    <path clip-path="url(#p1ccfb6e3f4)" d="M 366.010583 252 
L 367.52483 252 
L 367.52483 251.585829 
L 366.010583 251.585829 
z
" style="fill:#051c2c;"/>
   </g>
   <g id="patch_102">
    <path clip-path="url(#p1ccfb6e3f4)" d="M 369.039077 252 
L 370.553324 252 
L 370.553324 251.861943 
L 369.039077 251.861943 
z
" style="fill:#051c2c;"/>
   </g>
   <g id="patch_103">
    <path clip-path="url(#p1ccfb6e3f4)" d="M 372.067571 252 
L 373.581818 252 
L 373.581818 252 
L 372.067571 252 
z
" style="fill:#051c2c;"/>
   </g>
   <g id="patch_104">
    <path clip-path="url(#p1ccfb6e3f4)" d="M 69.218182 252 
L 70.732429 252 
L 70.732429 252 
L 69.218182 252 
z
" style="fill:#3ba9f5;"/>
   </g>
   <g id="patch_105">
    <path clip-path="url(#p1ccfb6e3f4)" d="M 72.246676 182.971429 
L 73.760923 182.971429 
L 73.760923 158.811429 
L 72.246676 158.811429 
z
" style="fill:#3ba9f5;"/>
   </g>
   <g id="patch_106">
    <path clip-path="url(#p1ccfb6e3f4)" d="M 75.27517 182.971429 
L 76.789417 182.971429 
L 76.789417 163.919543 
L 75.27517 163.919543 
z
" style="fill:#3ba9f5;"/>
   </g>
   <g id="patch_107">
    <path clip-path="url(#p1ccfb6e3f4)" d="M 78.303664 182.971429 
L 79.81791 182.971429 
L 79.81791 155.912229 
L 78.303664 155.912229 
z
" style="fill:#3ba9f5;"/>
   </g>
   <g id="patch_108">
    <path clip-path="url(#p1ccfb6e3f4)" d="M 81.332157 183.523657 
L 82.846404 183.523657 
L 82.846404 162.400914 
L 81.332157 162.400914 
z
" style="fill:#3ba9f5;"/>
   </g>
   <g id="patch_109">
    <path clip-path="url(#p1ccfb6e3f4)" d="M 84.360651 193.739886 
L 85.874898 193.739886 
L 85.874898 178.001371 
L 84.360651 178.001371 
z
" style="fill:#3ba9f5;"/>
   </g>
   <g id="patch_110">
    <path clip-path="url(#p1ccfb6e3f4)" d="M 87.389145 198.571886 
L 88.903392 198.571886 
L 88.903392 181.314743 
L 87.389145 181.314743 
z
" style="fill:#3ba9f5;"/>
   </g>
   <g id="patch_111">
    <path clip-path="url(#p1ccfb6e3f4)" d="M 90.417639 198.848 
L 91.931886 198.848 
L 91.931886 169.579886 
L 90.417639 169.579886 
z
" style="fill:#3ba9f5;"/>
   </g>
   <g id="patch_112">
    <path clip-path="url(#p1ccfb6e3f4)" d="M 93.446133 205.336686 
L 94.96038 205.336686 
L 94.96038 183.247543 
L 93.446133 183.247543 
z
" style="fill:#3ba9f5;"/>
   </g>
   <g id="patch_113">
    <path clip-path="url(#p1ccfb6e3f4)" d="M 96.474627 198.848 
L 97.988874 198.848 
L 97.988874 179.105829 
L 96.474627 179.105829 
z
" style="fill:#3ba9f5;"/>
   </g>
   <g id="patch_114">
    <path clip-path="url(#p1ccfb6e3f4)" d="M 99.503121 201.194971 
L 101.017368 201.194971 
L 101.017368 188.355657 
L 99.503121 188.355657 
z
" style="fill:#3ba9f5;"/>
   </g>
   <g id="patch_115">
    <path clip-path="url(#p1ccfb6e3f4)" d="M 102.531615 182.971429 
L 104.045862 182.971429 
L 104.045862 165.024 
L 102.531615 165.024 
z
" style="fill:#3ba9f5;"/>
   </g>
   <g id="patch_116">
    <path clip-path="url(#p1ccfb6e3f4)" d="M 105.560109 199.8144 
L 107.074355 199.8144 
L 107.074355 181.866971 
L 105.560109 181.866971 
z
" style="fill:#3ba9f5;"/>
   </g>
   <g id="patch_117">
    <path clip-path="url(#p1ccfb6e3f4)" d="M 108.588602 189.184 
L 110.102849 189.184 
L 110.102849 160.468114 
L 108.588602 160.468114 
z
" style="fill:#3ba9f5;"/>
   </g>
   <g id="patch_118">
    <path clip-path="url(#p1ccfb6e3f4)" d="M 111.617096 182.971429 
L 113.131343 182.971429 
L 113.131343 153.565257 
L 111.617096 153.565257 
z
" style="fill:#3ba9f5;"/>
   </g>
   <g id="patch_119">
    <path clip-path="url(#p1ccfb6e3f4)" d="M 114.64559 182.971429 
L 116.159837 182.971429 
L 116.159837 115.185371 
L 114.64559 115.185371 
z
" style="fill:#3ba9f5;"/>
   </g>
   <g id="patch_120">
    <path clip-path="url(#p1ccfb6e3f4)" d="M 117.674084 182.971429 
L 119.188331 182.971429 
L 119.188331 128.576914 
L 117.674084 128.576914 
z
" style="fill:#3ba9f5;"/>
   </g>
   <g id="patch_121">
    <path clip-path="url(#p1ccfb6e3f4)" d="M 120.702578 182.971429 
L 122.216825 182.971429 
L 122.216825 113.942857 
L 120.702578 113.942857 
z
" style="fill:#3ba9f5;"/>
   </g>
   <g id="patch_122">
    <path clip-path="url(#p1ccfb6e3f4)" d="M 123.731072 182.971429 
L 125.245319 182.971429 
L 125.245319 113.942857 
L 123.731072 113.942857 
z
" style="fill:#3ba9f5;"/>
   </g>
   <g id="patch_123">
    <path clip-path="url(#p1ccfb6e3f4)" d="M 126.759566 182.971429 
L 128.273813 182.971429 
L 128.273813 113.942857 
L 126.759566 113.942857 
z
" style="fill:#3ba9f5;"/>
   </g>
   <g id="patch_124">
    <path clip-path="url(#p1ccfb6e3f4)" d="M 129.78806 182.971429 
L 131.302307 182.971429 
L 131.302307 116.704 
L 129.78806 116.704 
z
" style="fill:#3ba9f5;"/>
   </g>
   <g id="patch_125">
    <path clip-path="url(#p1ccfb6e3f4)" d="M 132.816554 182.971429 
L 134.330801 182.971429 
L 134.330801 113.942857 
L 132.816554 113.942857 
z
" style="fill:#3ba9f5;"/>
   </g>
   <g id="patch_126">
    <path clip-path="url(#p1ccfb6e3f4)" d="M 135.845047 182.971429 
L 137.359294 182.971429 
L 137.359294 113.942857 
L 135.845047 113.942857 
z
" style="fill:#3ba9f5;"/>
   </g>
   <g id="patch_127">
    <path clip-path="url(#p1ccfb6e3f4)" d="M 138.873541 182.971429 
L 140.387788 182.971429 
L 140.387788 113.942857 
L 138.873541 113.942857 
z
" style="fill:#3ba9f5;"/>
   </g>
   <g id="patch_128">
    <path clip-path="url(#p1ccfb6e3f4)" d="M 141.902035 182.971429 
L 143.416282 182.971429 
L 143.416282 113.942857 
L 141.902035 113.942857 
z
" style="fill:#3ba9f5;"/>
   </g>
   <g id="patch_129">
    <path clip-path="url(#p1ccfb6e3f4)" d="M 144.930529 182.971429 
L 146.444776 182.971429 
L 146.444776 113.942857 
L 144.930529 113.942857 
z
" style="fill:#3ba9f5;"/>
   </g>
   <g id="patch_130">
    <path clip-path="url(#p1ccfb6e3f4)" d="M 147.959023 182.971429 
L 149.47327 182.971429 
L 149.47327 113.942857 
L 147.959023 113.942857 
z
" style="fill:#3ba9f5;"/>
   </g>
   <g id="patch_131">
    <path clip-path="url(#p1ccfb6e3f4)" d="M 150.987517 182.971429 
L 152.501764 182.971429 
L 152.501764 113.942857 
L 150.987517 113.942857 
z
" style="fill:#3ba9f5;"/>
   </g>
   <g id="patch_132">
    <path clip-path="url(#p1ccfb6e3f4)" d="M 154.016011 182.971429 
L 155.530258 182.971429 
L 155.530258 113.942857 
L 154.016011 113.942857 
z
" style="fill:#3ba9f5;"/>
   </g>
   <g id="patch_133">
    <path clip-path="url(#p1ccfb6e3f4)" d="M 157.044505 182.971429 
L 158.558752 182.971429 
L 158.558752 113.942857 
L 157.044505 113.942857 
z
" style="fill:#3ba9f5;"/>
   </g>
   <g id="patch_134">
    <path clip-path="url(#p1ccfb6e3f4)" d="M 160.072999 182.971429 
L 161.587246 182.971429 
L 161.587246 116.704 
L 160.072999 116.704 
z
" style="fill:#3ba9f5;"/>
   </g>
   <g id="patch_135">
    <path clip-path="url(#p1ccfb6e3f4)" d="M 163.101493 182.971429 
L 164.615739 182.971429 
L 164.615739 113.942857 
L 163.101493 113.942857 
z
" style="fill:#3ba9f5;"/>
   </g>
   <g id="patch_136">
    <path clip-path="url(#p1ccfb6e3f4)" d="M 166.129986 182.971429 
L 167.644233 182.971429 
L 167.644233 113.942857 
L 166.129986 113.942857 
z
" style="fill:#3ba9f5;"/>
   </g>
   <g id="patch_137">
    <path clip-path="url(#p1ccfb6e3f4)" d="M 169.15848 182.971429 
L 170.672727 182.971429 
L 170.672727 113.942857 
L 169.15848 113.942857 
z
" style="fill:#3ba9f5;"/>
   </g>
   <g id="patch_138">
    <path clip-path="url(#p1ccfb6e3f4)" d="M 172.186974 182.971429 
L 173.701221 182.971429 
L 173.701221 113.942857 
L 172.186974 113.942857 
z
" style="fill:#3ba9f5;"/>
   </g>
   <g id="patch_139">
    <path clip-path="url(#p1ccfb6e3f4)" d="M 175.215468 182.971429 
L 176.729715 182.971429 
L 176.729715 113.942857 
L 175.215468 113.942857 
z
" style="fill:#3ba9f5;"/>
   </g>
   <g id="patch_140">
    <path clip-path="url(#p1ccfb6e3f4)" d="M 178.243962 182.971429 
L 179.758209 182.971429 
L 179.758209 113.942857 
L 178.243962 113.942857 
z
" style="fill:#3ba9f5;"/>
   </g>
   <g id="patch_141">
    <path clip-path="url(#p1ccfb6e3f4)" d="M 181.272456 182.971429 
L 182.786703 182.971429 
L 182.786703 113.942857 
L 181.272456 113.942857 
z
" style="fill:#3ba9f5;"/>
   </g>
   <g id="patch_142">
    <path clip-path="url(#p1ccfb6e3f4)" d="M 184.30095 182.971429 
L 185.815197 182.971429 
L 185.815197 113.942857 
L 184.30095 113.942857 
z
" style="fill:#3ba9f5;"/>
   </g>
   <g id="patch_143">
    <path clip-path="url(#p1ccfb6e3f4)" d="M 187.329444 182.971429 
L 188.843691 182.971429 
L 188.843691 113.942857 
L 187.329444 113.942857 
z
" style="fill:#3ba9f5;"/>
   </g>
   <g id="patch_144">
    <path clip-path="url(#p1ccfb6e3f4)" d="M 190.357938 182.971429 
L 191.872185 182.971429 
L 191.872185 113.942857 
L 190.357938 113.942857 
z
" style="fill:#3ba9f5;"/>
   </g>
   <g id="patch_145">
    <path clip-path="url(#p1ccfb6e3f4)" d="M 193.386431 182.971429 
L 194.900678 182.971429 
L 194.900678 113.942857 
L 193.386431 113.942857 
z
" style="fill:#3ba9f5;"/>
   </g>
   <g id="patch_146">
    <path clip-path="url(#p1ccfb6e3f4)" d="M 196.414925 182.971429 
L 197.929172 182.971429 
L 197.929172 120.5696 
L 196.414925 120.5696 
z
" style="fill:#3ba9f5;"/>
   </g>
   <g id="patch_147">
    <path clip-path="url(#p1ccfb6e3f4)" d="M 199.443419 182.971429 
L 200.957666 182.971429 
L 200.957666 129.957486 
L 199.443419 129.957486 
z
" style="fill:#3ba9f5;"/>
   </g>
   <g id="patch_148">
    <path clip-path="url(#p1ccfb6e3f4)" d="M 202.471913 188.079543 
L 203.98616 188.079543 
L 203.98616 119.050971 
L 202.471913 119.050971 
z
" style="fill:#3ba9f5;"/>
   </g>
   <g id="patch_149">
    <path clip-path="url(#p1ccfb6e3f4)" d="M 205.500407 182.971429 
L 207.014654 182.971429 
L 207.014654 129.681371 
L 205.500407 129.681371 
z
" style="fill:#3ba9f5;"/>
   </g>
   <g id="patch_150">
    <path clip-path="url(#p1ccfb6e3f4)" d="M 208.528901 182.971429 
L 210.043148 182.971429 
L 210.043148 129.405257 
L 208.528901 129.405257 
z
" style="fill:#3ba9f5;"/>
   </g>
   <g id="patch_151">
    <path clip-path="url(#p1ccfb6e3f4)" d="M 211.557395 186.698971 
L 213.071642 186.698971 
L 213.071642 142.520686 
L 211.557395 142.520686 
z
" style="fill:#3ba9f5;"/>
   </g>
   <g id="patch_152">
    <path clip-path="url(#p1ccfb6e3f4)" d="M 214.585889 182.971429 
L 216.100136 182.971429 
L 216.100136 140.587886 
L 214.585889 140.587886 
z
" style="fill:#3ba9f5;"/>
   </g>
   <g id="patch_153">
    <path clip-path="url(#p1ccfb6e3f4)" d="M 217.614383 201.609143 
L 219.12863 201.609143 
L 219.12863 132.580571 
L 217.614383 132.580571 
z
" style="fill:#3ba9f5;"/>
   </g>
   <g id="patch_154">
    <path clip-path="url(#p1ccfb6e3f4)" d="M 220.642877 182.971429 
L 222.157123 182.971429 
L 222.157123 143.901257 
L 220.642877 143.901257 
z
" style="fill:#3ba9f5;"/>
   </g>
   <g id="patch_155">
    <path clip-path="url(#p1ccfb6e3f4)" d="M 223.67137 182.971429 
L 225.185617 182.971429 
L 225.185617 128.991086 
L 223.67137 128.991086 
z
" style="fill:#3ba9f5;"/>
   </g>
   <g id="patch_156">
    <path clip-path="url(#p1ccfb6e3f4)" d="M 226.699864 201.333029 
L 228.214111 201.333029 
L 228.214111 158.673371 
L 226.699864 158.673371 
z
" style="fill:#3ba9f5;"/>
   </g>
   <g id="patch_157">
    <path clip-path="url(#p1ccfb6e3f4)" d="M 229.728358 201.056914 
L 231.242605 201.056914 
L 231.242605 155.636114 
L 229.728358 155.636114 
z
" style="fill:#3ba9f5;"/>
   </g>
   <g id="patch_158">
    <path clip-path="url(#p1ccfb6e3f4)" d="M 232.756852 187.527314 
L 234.271099 187.527314 
L 234.271099 139.069257 
L 232.756852 139.069257 
z
" style="fill:#3ba9f5;"/>
   </g>
   <g id="patch_159">
    <path clip-path="url(#p1ccfb6e3f4)" d="M 235.785346 182.971429 
L 237.299593 182.971429 
L 237.299593 150.113829 
L 235.785346 150.113829 
z
" style="fill:#3ba9f5;"/>
   </g>
   <g id="patch_160">
    <path clip-path="url(#p1ccfb6e3f4)" d="M 238.81384 191.392914 
L 240.328087 191.392914 
L 240.328087 169.441829 
L 238.81384 169.441829 
z
" style="fill:#3ba9f5;"/>
   </g>
   <g id="patch_161">
    <path clip-path="url(#p1ccfb6e3f4)" d="M 241.842334 208.512 
L 243.356581 208.512 
L 243.356581 174.964114 
L 241.842334 174.964114 
z
" style="fill:#3ba9f5;"/>
   </g>
   <g id="patch_162">
    <path clip-path="url(#p1ccfb6e3f4)" d="M 244.870828 227.701943 
L 246.385075 227.701943 
L 246.385075 212.239543 
L 244.870828 212.239543 
z
" style="fill:#3ba9f5;"/>
   </g>
   <g id="patch_163">
    <path clip-path="url(#p1ccfb6e3f4)" d="M 247.899322 207.5456 
L 249.413569 207.5456 
L 249.413569 169.303771 
L 247.899322 169.303771 
z
" style="fill:#3ba9f5;"/>
   </g>
   <g id="patch_164">
    <path clip-path="url(#p1ccfb6e3f4)" d="M 250.927815 215.967086 
L 252.442062 215.967086 
L 252.442062 198.709943 
L 250.927815 198.709943 
z
" style="fill:#3ba9f5;"/>
   </g>
   <g id="patch_165">
    <path clip-path="url(#p1ccfb6e3f4)" d="M 253.956309 228.254171 
L 255.470556 228.254171 
L 255.470556 213.758171 
L 253.956309 213.758171 
z
" style="fill:#3ba9f5;"/>
   </g>
   <g id="patch_166">
    <path clip-path="url(#p1ccfb6e3f4)" d="M 256.984803 236.5376 
L 258.49905 236.5376 
L 258.49905 223.008 
L 256.984803 223.008 
z
" style="fill:#3ba9f5;"/>
   </g>
   <g id="patch_167">
    <path clip-path="url(#p1ccfb6e3f4)" d="M 260.013297 221.0752 
L 261.527544 221.0752 
L 261.527544 210.306743 
L 260.013297 210.306743 
z
" style="fill:#3ba9f5;"/>
   </g>
   <g id="patch_168">
    <path clip-path="url(#p1ccfb6e3f4)" d="M 263.041791 217.899886 
L 264.556038 217.899886 
L 264.556038 188.769829 
L 263.041791 188.769829 
z
" style="fill:#3ba9f5;"/>
   </g>
   <g id="patch_169">
    <path clip-path="url(#p1ccfb6e3f4)" d="M 266.070285 216.519314 
L 267.584532 216.519314 
L 267.584532 205.060571 
L 266.070285 205.060571 
z
" style="fill:#3ba9f5;"/>
   </g>
   <g id="patch_170">
    <path clip-path="url(#p1ccfb6e3f4)" d="M 269.098779 212.3776 
L 270.613026 212.3776 
L 270.613026 200.7808 
L 269.098779 200.7808 
z
" style="fill:#3ba9f5;"/>
   </g>
   <g id="patch_171">
    <path clip-path="url(#p1ccfb6e3f4)" d="M 272.127273 222.317714 
L 273.64152 222.317714 
L 273.64152 210.858971 
L 272.127273 210.858971 
z
" style="fill:#3ba9f5;"/>
   </g>
   <g id="patch_172">
    <path clip-path="url(#p1ccfb6e3f4)" d="M 275.155767 224.526629 
L 276.670014 224.526629 
L 276.670014 216.519314 
L 275.155767 216.519314 
z
" style="fill:#3ba9f5;"/>
   </g>
   <g id="patch_173">
    <path clip-path="url(#p1ccfb6e3f4)" d="M 278.184261 250.895543 
L 279.698507 250.895543 
L 279.698507 229.910857 
L 278.184261 229.910857 
z
" style="fill:#3ba9f5;"/>
   </g>
   <g id="patch_174">
    <path clip-path="url(#p1ccfb6e3f4)" d="M 281.212754 251.447771 
L 282.727001 251.447771 
L 282.727001 246.477714 
L 281.212754 246.477714 
z
" style="fill:#3ba9f5;"/>
   </g>
   <g id="patch_175">
    <path clip-path="url(#p1ccfb6e3f4)" d="M 284.241248 250.0672 
L 285.755495 250.0672 
L 285.755495 239.160686 
L 284.241248 239.160686 
z
" style="fill:#3ba9f5;"/>
   </g>
   <g id="patch_176">
    <path clip-path="url(#p1ccfb6e3f4)" d="M 287.269742 251.723886 
L 288.783989 251.723886 
L 288.783989 243.992686 
L 287.269742 243.992686 
z
" style="fill:#3ba9f5;"/>
   </g>
   <g id="patch_177">
    <path clip-path="url(#p1ccfb6e3f4)" d="M 290.298236 251.585829 
L 291.812483 251.585829 
L 291.812483 247.029943 
L 290.298236 247.029943 
z
" style="fill:#3ba9f5;"/>
   </g>
   <g id="patch_178">
    <path clip-path="url(#p1ccfb6e3f4)" d="M 293.32673 248.824686 
L 294.840977 248.824686 
L 294.840977 233.362286 
L 293.32673 233.362286 
z
" style="fill:#3ba9f5;"/>
   </g>
   <g id="patch_179">
    <path clip-path="url(#p1ccfb6e3f4)" d="M 296.355224 249.791086 
L 297.869471 249.791086 
L 297.869471 244.406857 
L 296.355224 244.406857 
z
" style="fill:#3ba9f5;"/>
   </g>
   <g id="patch_180">
    <path clip-path="url(#p1ccfb6e3f4)" d="M 299.383718 251.309714 
L 300.897965 251.309714 
L 300.897965 247.029943 
L 299.383718 247.029943 
z
" style="fill:#3ba9f5;"/>
   </g>
   <g id="patch_181">
    <path clip-path="url(#p1ccfb6e3f4)" d="M 302.412212 250.343314 
L 303.926459 250.343314 
L 303.926459 243.854629 
L 302.412212 243.854629 
z
" style="fill:#3ba9f5;"/>
   </g>
   <g id="patch_182">
    <path clip-path="url(#p1ccfb6e3f4)" d="M 305.440706 251.309714 
L 306.954953 251.309714 
L 306.954953 248.1344 
L 305.440706 248.1344 
z
" style="fill:#3ba9f5;"/>
   </g>
   <g id="patch_183">
    <path clip-path="url(#p1ccfb6e3f4)" d="M 308.469199 249.791086 
L 309.983446 249.791086 
L 309.983446 231.291429 
L 308.469199 231.291429 
z
" style="fill:#3ba9f5;"/>
   </g>
   <g id="patch_184">
    <path clip-path="url(#p1ccfb6e3f4)" d="M 311.497693 251.861943 
L 313.01194 251.861943 
L 313.01194 248.824686 
L 311.497693 248.824686 
z
" style="fill:#3ba9f5;"/>
   </g>
   <g id="patch_185">
    <path clip-path="url(#p1ccfb6e3f4)" d="M 314.526187 250.757486 
L 316.040434 250.757486 
L 316.040434 246.615771 
L 314.526187 246.615771 
z
" style="fill:#3ba9f5;"/>
   </g>
   <g id="patch_186">
    <path clip-path="url(#p1ccfb6e3f4)" d="M 317.554681 251.723886 
L 319.068928 251.723886 
L 319.068928 249.1008 
L 317.554681 249.1008 
z
" style="fill:#3ba9f5;"/>
   </g>
   <g id="patch_187">
    <path clip-path="url(#p1ccfb6e3f4)" d="M 320.583175 251.723886 
L 322.097422 251.723886 
L 322.097422 247.858286 
L 320.583175 247.858286 
z
" style="fill:#3ba9f5;"/>
   </g>
   <g id="patch_188">
    <path clip-path="url(#p1ccfb6e3f4)" d="M 323.611669 248.824686 
L 325.125916 248.824686 
L 325.125916 231.153371 
L 323.611669 231.153371 
z
" style="fill:#3ba9f5;"/>
   </g>
   <g id="patch_189">
    <path clip-path="url(#p1ccfb6e3f4)" d="M 326.640163 250.481371 
L 328.15441 250.481371 
L 328.15441 247.168 
L 326.640163 247.168 
z
" style="fill:#3ba9f5;"/>
   </g>
   <g id="patch_190">
    <path clip-path="url(#p1ccfb6e3f4)" d="M 329.668657 251.861943 
L 331.182904 251.861943 
L 331.182904 250.0672 
L 329.668657 250.0672 
z
" style="fill:#3ba9f5;"/>
   </g>
   <g id="patch_191">
    <path clip-path="url(#p1ccfb6e3f4)" d="M 332.697151 251.309714 
L 334.211398 251.309714 
L 334.211398 247.720229 
L 332.697151 247.720229 
z
" style="fill:#3ba9f5;"/>
   </g>
   <g id="patch_192">
    <path clip-path="url(#p1ccfb6e3f4)" d="M 335.725645 251.447771 
L 337.239891 251.447771 
L 337.239891 248.962743 
L 335.725645 248.962743 
z
" style="fill:#3ba9f5;"/>
   </g>
   <g id="patch_193">
    <path clip-path="url(#p1ccfb6e3f4)" d="M 338.754138 250.205257 
L 340.268385 250.205257 
L 340.268385 239.4368 
L 338.754138 239.4368 
z
" style="fill:#3ba9f5;"/>
   </g>
   <g id="patch_194">
    <path clip-path="url(#p1ccfb6e3f4)" d="M 341.782632 251.861943 
L 343.296879 251.861943 
L 343.296879 251.723886 
L 341.782632 251.723886 
z
" style="fill:#3ba9f5;"/>
   </g>
   <g id="patch_195">
    <path clip-path="url(#p1ccfb6e3f4)" d="M 344.811126 251.585829 
L 346.325373 251.585829 
L 346.325373 250.343314 
L 344.811126 250.343314 
z
" style="fill:#3ba9f5;"/>
   </g>
   <g id="patch_196">
    <path clip-path="url(#p1ccfb6e3f4)" d="M 347.83962 251.861943 
L 349.353867 251.861943 
L 349.353867 251.171657 
L 347.83962 251.171657 
z
" style="fill:#3ba9f5;"/>
   </g>
   <g id="patch_197">
    <path clip-path="url(#p1ccfb6e3f4)" d="M 350.868114 252 
L 352.382361 252 
L 352.382361 251.309714 
L 350.868114 251.309714 
z
" style="fill:#3ba9f5;"/>
   </g>
   <g id="patch_198">
    <path clip-path="url(#p1ccfb6e3f4)" d="M 353.896608 251.585829 
L 355.410855 251.585829 
L 355.410855 250.481371 
L 353.896608 250.481371 
z
" style="fill:#3ba9f5;"/>
   </g>
   <g id="patch_199">
    <path clip-path="url(#p1ccfb6e3f4)" d="M 356.925102 251.171657 
L 358.439349 251.171657 
L 358.439349 249.791086 
L 356.925102 249.791086 
z
" style="fill:#3ba9f5;"/>
   </g>
   <g id="patch_200">
    <path clip-path="url(#p1ccfb6e3f4)" d="M 359.953596 252 
L 361.467843 252 
L 361.467843 251.861943 
L 359.953596 251.861943 
z
" style="fill:#3ba9f5;"/>
   </g>
   <g id="patch_201">
    <path clip-path="url(#p1ccfb6e3f4)" d="M 362.98209 251.723886 
L 364.496336 251.723886 
L 364.496336 250.895543 
L 362.98209 250.895543 
z
" style="fill:#3ba9f5;"/>
   </g>
   <g id="patch_202">
    <path clip-path="url(#p1ccfb6e3f4)" d="M 366.010583 251.585829 
L 367.52483 251.585829 
L 367.52483 250.343314 
L 366.010583 250.343314 
z
" style="fill:#3ba9f5;"/>
   </g>
   <g id="patch_203">
    <path clip-path="url(#p1ccfb6e3f4)" d="M 369.039077 251.861943 
L 370.553324 251.861943 
L 370.553324 251.723886 
L 369.039077 251.723886 
z
" style="fill:#3ba9f5;"/>
   </g>
   <g id="patch_204">
    <path clip-path="url(#p1ccfb6e3f4)" d="M 372.067571 252 
L 373.581818 252 
L 373.581818 252 
L 372.067571 252 
z
" style="fill:#3ba9f5;"/>
   </g>
   <g id="patch_205">
    <path clip-path="url(#p1ccfb6e3f4)" d="M 69.218182 252 
L 70.732429 252 
L 70.732429 252 
L 69.218182 252 
z
" style="fill:#989898;"/>
   </g>
   <g id="patch_206">
    <path clip-path="url(#p1ccfb6e3f4)" d="M 72.246676 158.811429 
L 73.760923 158.811429 
L 73.760923 156.188343 
L 72.246676 156.188343 
z
" style="fill:#989898;"/>
   </g>
   <g id="patch_207">
    <path clip-path="url(#p1ccfb6e3f4)" d="M 75.27517 163.919543 
L 76.789417 163.919543 
L 76.789417 161.572571 
L 75.27517 161.572571 
z
" style="fill:#989898;"/>
   </g>
   <g id="patch_208">
    <path clip-path="url(#p1ccfb6e3f4)" d="M 78.303664 155.912229 
L 79.81791 155.912229 
L 79.81791 152.874971 
L 78.303664 152.874971 
z
" style="fill:#989898;"/>
   </g>
   <g id="patch_209">
    <path clip-path="url(#p1ccfb6e3f4)" d="M 81.332157 162.400914 
L 82.846404 162.400914 
L 82.846404 160.330057 
L 81.332157 160.330057 
z
" style="fill:#989898;"/>
   </g>
   <g id="patch_210">
    <path clip-path="url(#p1ccfb6e3f4)" d="M 84.360651 178.001371 
L 85.874898 178.001371 
L 85.874898 176.206629 
L 84.360651 176.206629 
z
" style="fill:#989898;"/>
   </g>
   <g id="patch_211">
    <path clip-path="url(#p1ccfb6e3f4)" d="M 87.389145 181.314743 
L 88.903392 181.314743 
L 88.903392 178.001371 
L 87.389145 178.001371 
z
" style="fill:#989898;"/>
   </g>
   <g id="patch_212">
    <path clip-path="url(#p1ccfb6e3f4)" d="M 90.417639 169.579886 
L 91.931886 169.579886 
L 91.931886 167.9232 
L 90.417639 167.9232 
z
" style="fill:#989898;"/>
   </g>
   <g id="patch_213">
    <path clip-path="url(#p1ccfb6e3f4)" d="M 93.446133 183.247543 
L 94.96038 183.247543 
L 94.96038 181.314743 
L 93.446133 181.314743 
z
" style="fill:#989898;"/>
   </g>
   <g id="patch_214">
    <path clip-path="url(#p1ccfb6e3f4)" d="M 96.474627 179.105829 
L 97.988874 179.105829 
L 97.988874 176.344686 
L 96.474627 176.344686 
z
" style="fill:#989898;"/>
   </g>
   <g id="patch_215">
    <path clip-path="url(#p1ccfb6e3f4)" d="M 99.503121 188.355657 
L 101.017368 188.355657 
L 101.017368 187.2512 
L 99.503121 187.2512 
z
" style="fill:#989898;"/>
   </g>
   <g id="patch_216">
    <path clip-path="url(#p1ccfb6e3f4)" d="M 102.531615 165.024 
L 104.045862 165.024 
L 104.045862 163.643429 
L 102.531615 163.643429 
z
" style="fill:#989898;"/>
   </g>
   <g id="patch_217">
    <path clip-path="url(#p1ccfb6e3f4)" d="M 105.560109 181.866971 
L 107.074355 181.866971 
L 107.074355 181.176686 
L 105.560109 181.176686 
z
" style="fill:#989898;"/>
   </g>
   <g id="patch_218">
    <path clip-path="url(#p1ccfb6e3f4)" d="M 108.588602 160.468114 
L 110.102849 160.468114 
L 110.102849 158.535314 
L 108.588602 158.535314 
z
" style="fill:#989898;"/>
   </g>
   <g id="patch_219">
    <path clip-path="url(#p1ccfb6e3f4)" d="M 111.617096 153.565257 
L 113.131343 153.565257 
L 113.131343 150.251886 
L 111.617096 150.251886 
z
" style="fill:#989898;"/>
   </g>
   <g id="patch_220">
    <path clip-path="url(#p1ccfb6e3f4)" d="M 114.64559 115.185371 
L 116.159837 115.185371 
L 116.159837 46.1568 
L 114.64559 46.1568 
z
" style="fill:#989898;"/>
   </g>
   <g id="patch_221">
    <path clip-path="url(#p1ccfb6e3f4)" d="M 117.674084 128.576914 
L 119.188331 128.576914 
L 119.188331 59.548343 
L 117.674084 59.548343 
z
" style="fill:#989898;"/>
   </g>
   <g id="patch_222">
    <path clip-path="url(#p1ccfb6e3f4)" d="M 120.702578 113.942857 
L 122.216825 113.942857 
L 122.216825 44.914286 
L 120.702578 44.914286 
z
" style="fill:#989898;"/>
   </g>
   <g id="patch_223">
    <path clip-path="url(#p1ccfb6e3f4)" d="M 123.731072 113.942857 
L 125.245319 113.942857 
L 125.245319 44.914286 
L 123.731072 44.914286 
z
" style="fill:#989898;"/>
   </g>
   <g id="patch_224">
    <path clip-path="url(#p1ccfb6e3f4)" d="M 126.759566 113.942857 
L 128.273813 113.942857 
L 128.273813 44.914286 
L 126.759566 44.914286 
z
" style="fill:#989898;"/>
   </g>
   <g id="patch_225">
    <path clip-path="url(#p1ccfb6e3f4)" d="M 129.78806 116.704 
L 131.302307 116.704 
L 131.302307 47.675429 
L 129.78806 47.675429 
z
" style="fill:#989898;"/>
   </g>
   <g id="patch_226">
    <path clip-path="url(#p1ccfb6e3f4)" d="M 132.816554 113.942857 
L 134.330801 113.942857 
L 134.330801 44.914286 
L 132.816554 44.914286 
z
" style="fill:#989898;"/>
   </g>
   <g id="patch_227">
    <path clip-path="url(#p1ccfb6e3f4)" d="M 135.845047 113.942857 
L 137.359294 113.942857 
L 137.359294 44.914286 
L 135.845047 44.914286 
z
" style="fill:#989898;"/>
   </g>
   <g id="patch_228">
    <path clip-path="url(#p1ccfb6e3f4)" d="M 138.873541 113.942857 
L 140.387788 113.942857 
L 140.387788 44.914286 
L 138.873541 44.914286 
z
" style="fill:#989898;"/>
   </g>
   <g id="patch_229">
    <path clip-path="url(#p1ccfb6e3f4)" d="M 141.902035 113.942857 
L 143.416282 113.942857 
L 143.416282 44.914286 
L 141.902035 44.914286 
z
" style="fill:#989898;"/>
   </g>
   <g id="patch_230">
    <path clip-path="url(#p1ccfb6e3f4)" d="M 144.930529 113.942857 
L 146.444776 113.942857 
L 146.444776 44.914286 
L 144.930529 44.914286 
z
" style="fill:#989898;"/>
   </g>
   <g id="patch_231">
    <path clip-path="url(#p1ccfb6e3f4)" d="M 147.959023 113.942857 
L 149.47327 113.942857 
L 149.47327 44.914286 
L 147.959023 44.914286 
z
" style="fill:#989898;"/>
   </g>
   <g id="patch_232">
    <path clip-path="url(#p1ccfb6e3f4)" d="M 150.987517 113.942857 
L 152.501764 113.942857 
L 152.501764 44.914286 
L 150.987517 44.914286 
z
" style="fill:#989898;"/>
   </g>
   <g id="patch_233">
    <path clip-path="url(#p1ccfb6e3f4)" d="M 154.016011 113.942857 
L 155.530258 113.942857 
L 155.530258 44.914286 
L 154.016011 44.914286 
z
" style="fill:#989898;"/>
   </g>
   <g id="patch_234">
    <path clip-path="url(#p1ccfb6e3f4)" d="M 157.044505 113.942857 
L 158.558752 113.942857 
L 158.558752 44.914286 
L 157.044505 44.914286 
z
" style="fill:#989898;"/>
   </g>
   <g id="patch_235">
    <path clip-path="url(#p1ccfb6e3f4)" d="M 160.072999 116.704 
L 161.587246 116.704 
L 161.587246 47.675429 
L 160.072999 47.675429 
z
" style="fill:#989898;"/>
   </g>
   <g id="patch_236">
    <path clip-path="url(#p1ccfb6e3f4)" d="M 163.101493 113.942857 
L 164.615739 113.942857 
L 164.615739 44.914286 
L 163.101493 44.914286 
z
" style="fill:#989898;"/>
   </g>
   <g id="patch_237">
    <path clip-path="url(#p1ccfb6e3f4)" d="M 166.129986 113.942857 
L 167.644233 113.942857 
L 167.644233 44.914286 
L 166.129986 44.914286 
z
" style="fill:#989898;"/>
   </g>
   <g id="patch_238">
    <path clip-path="url(#p1ccfb6e3f4)" d="M 169.15848 113.942857 
L 170.672727 113.942857 
L 170.672727 44.914286 
L 169.15848 44.914286 
z
" style="fill:#989898;"/>
   </g>
   <g id="patch_239">
    <path clip-path="url(#p1ccfb6e3f4)" d="M 172.186974 113.942857 
L 173.701221 113.942857 
L 173.701221 44.914286 
L 172.186974 44.914286 
z
" style="fill:#989898;"/>
   </g>
   <g id="patch_240">
    <path clip-path="url(#p1ccfb6e3f4)" d="M 175.215468 113.942857 
L 176.729715 113.942857 
L 176.729715 44.914286 
L 175.215468 44.914286 
z
" style="fill:#989898;"/>
   </g>
   <g id="patch_241">
    <path clip-path="url(#p1ccfb6e3f4)" d="M 178.243962 113.942857 
L 179.758209 113.942857 
L 179.758209 44.914286 
L 178.243962 44.914286 
z
" style="fill:#989898;"/>
   </g>
   <g id="patch_242">
    <path clip-path="url(#p1ccfb6e3f4)" d="M 181.272456 113.942857 
L 182.786703 113.942857 
L 182.786703 44.914286 
L 181.272456 44.914286 
z
" style="fill:#989898;"/>
   </g>
   <g id="patch_243">
    <path clip-path="url(#p1ccfb6e3f4)" d="M 184.30095 113.942857 
L 185.815197 113.942857 
L 185.815197 44.914286 
L 184.30095 44.914286 
z
" style="fill:#989898;"/>
   </g>
   <g id="patch_244">
    <path clip-path="url(#p1ccfb6e3f4)" d="M 187.329444 113.942857 
L 188.843691 113.942857 
L 188.843691 44.914286 
L 187.329444 44.914286 
z
" style="fill:#989898;"/>
   </g>
   <g id="patch_245">
    <path clip-path="url(#p1ccfb6e3f4)" d="M 190.357938 113.942857 
L 191.872185 113.942857 
L 191.872185 44.914286 
L 190.357938 44.914286 
z
" style="fill:#989898;"/>
   </g>
   <g id="patch_246">
    <path clip-path="url(#p1ccfb6e3f4)" d="M 193.386431 113.942857 
L 194.900678 113.942857 
L 194.900678 44.914286 
L 193.386431 44.914286 
z
" style="fill:#989898;"/>
   </g>
   <g id="patch_247">
    <path clip-path="url(#p1ccfb6e3f4)" d="M 196.414925 120.5696 
L 197.929172 120.5696 
L 197.929172 51.541029 
L 196.414925 51.541029 
z
" style="fill:#989898;"/>
   </g>
   <g id="patch_248">
    <path clip-path="url(#p1ccfb6e3f4)" d="M 199.443419 129.957486 
L 200.957666 129.957486 
L 200.957666 60.928914 
L 199.443419 60.928914 
z
" style="fill:#989898;"/>
   </g>
   <g id="patch_249">
    <path clip-path="url(#p1ccfb6e3f4)" d="M 202.471913 119.050971 
L 203.98616 119.050971 
L 203.98616 50.0224 
L 202.471913 50.0224 
z
" style="fill:#989898;"/>
   </g>
   <g id="patch_250">
    <path clip-path="url(#p1ccfb6e3f4)" d="M 205.500407 129.681371 
L 207.014654 129.681371 
L 207.014654 60.6528 
L 205.500407 60.6528 
z
" style="fill:#989898;"/>
   </g>
   <g id="patch_251">
    <path clip-path="url(#p1ccfb6e3f4)" d="M 208.528901 129.405257 
L 210.043148 129.405257 
L 210.043148 60.376686 
L 208.528901 60.376686 
z
" style="fill:#989898;"/>
   </g>
   <g id="patch_252">
    <path clip-path="url(#p1ccfb6e3f4)" d="M 211.557395 142.520686 
L 213.071642 142.520686 
L 213.071642 73.492114 
L 211.557395 73.492114 
z
" style="fill:#989898;"/>
   </g>
   <g id="patch_253">
    <path clip-path="url(#p1ccfb6e3f4)" d="M 214.585889 140.587886 
L 216.100136 140.587886 
L 216.100136 71.559314 
L 214.585889 71.559314 
z
" style="fill:#989898;"/>
   </g>
   <g id="patch_254">
    <path clip-path="url(#p1ccfb6e3f4)" d="M 217.614383 132.580571 
L 219.12863 132.580571 
L 219.12863 63.552 
L 217.614383 63.552 
z
" style="fill:#989898;"/>
   </g>
   <g id="patch_255">
    <path clip-path="url(#p1ccfb6e3f4)" d="M 220.642877 143.901257 
L 222.157123 143.901257 
L 222.157123 74.872686 
L 220.642877 74.872686 
z
" style="fill:#989898;"/>
   </g>
   <g id="patch_256">
    <path clip-path="url(#p1ccfb6e3f4)" d="M 223.67137 128.991086 
L 225.185617 128.991086 
L 225.185617 72.801829 
L 223.67137 72.801829 
z
" style="fill:#989898;"/>
   </g>
   <g id="patch_257">
    <path clip-path="url(#p1ccfb6e3f4)" d="M 226.699864 158.673371 
L 228.214111 158.673371 
L 228.214111 102.898286 
L 226.699864 102.898286 
z
" style="fill:#989898;"/>
   </g>
   <g id="patch_258">
    <path clip-path="url(#p1ccfb6e3f4)" d="M 229.728358 155.636114 
L 231.242605 155.636114 
L 231.242605 110.629486 
L 229.728358 110.629486 
z
" style="fill:#989898;"/>
   </g>
   <g id="patch_259">
    <path clip-path="url(#p1ccfb6e3f4)" d="M 232.756852 139.069257 
L 234.271099 139.069257 
L 234.271099 103.450514 
L 232.756852 103.450514 
z
" style="fill:#989898;"/>
   </g>
   <g id="patch_260">
    <path clip-path="url(#p1ccfb6e3f4)" d="M 235.785346 150.113829 
L 237.299593 150.113829 
L 237.299593 120.017371 
L 235.785346 120.017371 
z
" style="fill:#989898;"/>
   </g>
   <g id="patch_261">
    <path clip-path="url(#p1ccfb6e3f4)" d="M 238.81384 169.441829 
L 240.328087 169.441829 
L 240.328087 152.598857 
L 238.81384 152.598857 
z
" style="fill:#989898;"/>
   </g>
   <g id="patch_262">
    <path clip-path="url(#p1ccfb6e3f4)" d="M 241.842334 174.964114 
L 243.356581 174.964114 
L 243.356581 155.636114 
L 241.842334 155.636114 
z
" style="fill:#989898;"/>
   </g>
   <g id="patch_263">
    <path clip-path="url(#p1ccfb6e3f4)" d="M 244.870828 212.239543 
L 246.385075 212.239543 
L 246.385075 199.8144 
L 244.870828 199.8144 
z
" style="fill:#989898;"/>
   </g>
   <g id="patch_264">
    <path clip-path="url(#p1ccfb6e3f4)" d="M 247.899322 169.303771 
L 249.413569 169.303771 
L 249.413569 157.016686 
L 247.899322 157.016686 
z
" style="fill:#989898;"/>
   </g>
   <g id="patch_265">
    <path clip-path="url(#p1ccfb6e3f4)" d="M 250.927815 198.709943 
L 252.442062 198.709943 
L 252.442062 188.079543 
L 250.927815 188.079543 
z
" style="fill:#989898;"/>
   </g>
   <g id="patch_266">
    <path clip-path="url(#p1ccfb6e3f4)" d="M 253.956309 213.758171 
L 255.470556 213.758171 
L 255.470556 204.784457 
L 253.956309 204.784457 
z
" style="fill:#989898;"/>
   </g>
   <g id="patch_267">
    <path clip-path="url(#p1ccfb6e3f4)" d="M 256.984803 223.008 
L 258.49905 223.008 
L 258.49905 217.899886 
L 256.984803 217.899886 
z
" style="fill:#989898;"/>
   </g>
   <g id="patch_268">
    <path clip-path="url(#p1ccfb6e3f4)" d="M 260.013297 210.306743 
L 261.527544 210.306743 
L 261.527544 206.993371 
L 260.013297 206.993371 
z
" style="fill:#989898;"/>
   </g>
   <g id="patch_269">
    <path clip-path="url(#p1ccfb6e3f4)" d="M 263.041791 188.769829 
L 264.556038 188.769829 
L 264.556038 180.624457 
L 263.041791 180.624457 
z
" style="fill:#989898;"/>
   </g>
   <g id="patch_270">
    <path clip-path="url(#p1ccfb6e3f4)" d="M 266.070285 205.060571 
L 267.584532 205.060571 
L 267.584532 203.127771 
L 266.070285 203.127771 
z
" style="fill:#989898;"/>
   </g>
   <g id="patch_271">
    <path clip-path="url(#p1ccfb6e3f4)" d="M 269.098779 200.7808 
L 270.613026 200.7808 
L 270.613026 197.605486 
L 269.098779 197.605486 
z
" style="fill:#989898;"/>
   </g>
   <g id="patch_272">
    <path clip-path="url(#p1ccfb6e3f4)" d="M 272.127273 210.858971 
L 273.64152 210.858971 
L 273.64152 207.821714 
L 272.127273 207.821714 
z
" style="fill:#989898;"/>
   </g>
   <g id="patch_273">
    <path clip-path="url(#p1ccfb6e3f4)" d="M 275.155767 216.519314 
L 276.670014 216.519314 
L 276.670014 214.3104 
L 275.155767 214.3104 
z
" style="fill:#989898;"/>
   </g>
   <g id="patch_274">
    <path clip-path="url(#p1ccfb6e3f4)" d="M 278.184261 229.910857 
L 279.698507 229.910857 
L 279.698507 226.459429 
L 278.184261 226.459429 
z
" style="fill:#989898;"/>
   </g>
   <g id="patch_275">
    <path clip-path="url(#p1ccfb6e3f4)" d="M 281.212754 246.477714 
L 282.727001 246.477714 
L 282.727001 245.787429 
L 281.212754 245.787429 
z
" style="fill:#989898;"/>
   </g>
   <g id="patch_276">
    <path clip-path="url(#p1ccfb6e3f4)" d="M 284.241248 239.160686 
L 285.755495 239.160686 
L 285.755495 237.504 
L 284.241248 237.504 
z
" style="fill:#989898;"/>
   </g>
   <g id="patch_277">
    <path clip-path="url(#p1ccfb6e3f4)" d="M 287.269742 243.992686 
L 288.783989 243.992686 
L 288.783989 242.888229 
L 287.269742 242.888229 
z
" style="fill:#989898;"/>
   </g>
   <g id="patch_278">
    <path clip-path="url(#p1ccfb6e3f4)" d="M 290.298236 247.029943 
L 291.812483 247.029943 
L 291.812483 246.615771 
L 290.298236 246.615771 
z
" style="fill:#989898;"/>
   </g>
   <g id="patch_279">
    <path clip-path="url(#p1ccfb6e3f4)" d="M 293.32673 233.362286 
L 294.840977 233.362286 
L 294.840977 230.7392 
L 293.32673 230.7392 
z
" style="fill:#989898;"/>
   </g>
   <g id="patch_280">
    <path clip-path="url(#p1ccfb6e3f4)" d="M 296.355224 244.406857 
L 297.869471 244.406857 
L 297.869471 243.164343 
L 296.355224 243.164343 
z
" style="fill:#989898;"/>
   </g>
   <g id="patch_281">
    <path clip-path="url(#p1ccfb6e3f4)" d="M 299.383718 247.029943 
L 300.897965 247.029943 
L 300.897965 246.753829 
L 299.383718 246.753829 
z
" style="fill:#989898;"/>
   </g>
   <g id="patch_282">
    <path clip-path="url(#p1ccfb6e3f4)" d="M 302.412212 243.854629 
L 303.926459 243.854629 
L 303.926459 242.197943 
L 302.412212 242.197943 
z
" style="fill:#989898;"/>
   </g>
   <g id="patch_283">
    <path clip-path="url(#p1ccfb6e3f4)" d="M 305.440706 248.1344 
L 306.954953 248.1344 
L 306.954953 247.996343 
L 305.440706 247.996343 
z
" style="fill:#989898;"/>
   </g>
   <g id="patch_284">
    <path clip-path="url(#p1ccfb6e3f4)" d="M 308.469199 231.291429 
L 309.983446 231.291429 
L 309.983446 229.910857 
L 308.469199 229.910857 
z
" style="fill:#989898;"/>
   </g>
   <g id="patch_285">
    <path clip-path="url(#p1ccfb6e3f4)" d="M 311.497693 248.824686 
L 313.01194 248.824686 
L 313.01194 248.548571 
L 311.497693 248.548571 
z
" style="fill:#989898;"/>
   </g>
   <g id="patch_286">
    <path clip-path="url(#p1ccfb6e3f4)" d="M 314.526187 246.615771 
L 316.040434 246.615771 
L 316.040434 246.063543 
L 314.526187 246.063543 
z
" style="fill:#989898;"/>
   </g>
   <g id="patch_287">
    <path clip-path="url(#p1ccfb6e3f4)" d="M 317.554681 249.1008 
L 319.068928 249.1008 
L 319.068928 249.1008 
L 317.554681 249.1008 
z
" style="fill:#989898;"/>
   </g>
   <g id="patch_288">
    <path clip-path="url(#p1ccfb6e3f4)" d="M 320.583175 247.858286 
L 322.097422 247.858286 
L 322.097422 247.720229 
L 320.583175 247.720229 
z
" style="fill:#989898;"/>
   </g>
   <g id="patch_289">
    <path clip-path="url(#p1ccfb6e3f4)" d="M 323.611669 231.153371 
L 325.125916 231.153371 
L 325.125916 229.910857 
L 323.611669 229.910857 
z
" style="fill:#989898;"/>
   </g>
   <g id="patch_290">
    <path clip-path="url(#p1ccfb6e3f4)" d="M 326.640163 247.168 
L 328.15441 247.168 
L 328.15441 247.029943 
L 326.640163 247.029943 
z
" style="fill:#989898;"/>
   </g>
   <g id="patch_291">
    <path clip-path="url(#p1ccfb6e3f4)" d="M 329.668657 250.0672 
L 331.182904 250.0672 
L 331.182904 249.791086 
L 329.668657 249.791086 
z
" style="fill:#989898;"/>
   </g>
   <g id="patch_292">
    <path clip-path="url(#p1ccfb6e3f4)" d="M 332.697151 247.720229 
L 334.211398 247.720229 
L 334.211398 247.168 
L 332.697151 247.168 
z
" style="fill:#989898;"/>
   </g>
   <g id="patch_293">
    <path clip-path="url(#p1ccfb6e3f4)" d="M 335.725645 248.962743 
L 337.239891 248.962743 
L 337.239891 247.858286 
L 335.725645 247.858286 
z
" style="fill:#989898;"/>
   </g>
   <g id="patch_294">
    <path clip-path="url(#p1ccfb6e3f4)" d="M 338.754138 239.4368 
L 340.268385 239.4368 
L 340.268385 237.918171 
L 338.754138 237.918171 
z
" style="fill:#989898;"/>
   </g>
   <g id="patch_295">
    <path clip-path="url(#p1ccfb6e3f4)" d="M 341.782632 251.723886 
L 343.296879 251.723886 
L 343.296879 251.585829 
L 341.782632 251.585829 
z
" style="fill:#989898;"/>
   </g>
   <g id="patch_296">
    <path clip-path="url(#p1ccfb6e3f4)" d="M 344.811126 250.343314 
L 346.325373 250.343314 
L 346.325373 250.343314 
L 344.811126 250.343314 
z
" style="fill:#989898;"/>
   </g>
   <g id="patch_297">
    <path clip-path="url(#p1ccfb6e3f4)" d="M 347.83962 251.171657 
L 349.353867 251.171657 
L 349.353867 251.171657 
L 347.83962 251.171657 
z
" style="fill:#989898;"/>
   </g>
   <g id="patch_298">
    <path clip-path="url(#p1ccfb6e3f4)" d="M 350.868114 251.309714 
L 352.382361 251.309714 
L 352.382361 251.309714 
L 350.868114 251.309714 
z
" style="fill:#989898;"/>
   </g>
   <g id="patch_299">
    <path clip-path="url(#p1ccfb6e3f4)" d="M 353.896608 250.481371 
L 355.410855 250.481371 
L 355.410855 250.481371 
L 353.896608 250.481371 
z
" style="fill:#989898;"/>
   </g>
   <g id="patch_300">
    <path clip-path="url(#p1ccfb6e3f4)" d="M 356.925102 249.791086 
L 358.439349 249.791086 
L 358.439349 249.514971 
L 356.925102 249.514971 
z
" style="fill:#989898;"/>
   </g>
   <g id="patch_301">
    <path clip-path="url(#p1ccfb6e3f4)" d="M 359.953596 251.861943 
L 361.467843 251.861943 
L 361.467843 251.861943 
L 359.953596 251.861943 
z
" style="fill:#989898;"/>
   </g>
   <g id="patch_302">
    <path clip-path="url(#p1ccfb6e3f4)" d="M 362.98209 250.895543 
L 364.496336 250.895543 
L 364.496336 250.757486 
L 362.98209 250.757486 
z
" style="fill:#989898;"/>
   </g>
   <g id="patch_303">
    <path clip-path="url(#p1ccfb6e3f4)" d="M 366.010583 250.343314 
L 367.52483 250.343314 
L 367.52483 250.343314 
L 366.010583 250.343314 
z
" style="fill:#989898;"/>
   </g>
   <g id="patch_304">
    <path clip-path="url(#p1ccfb6e3f4)" d="M 369.039077 251.723886 
L 370.553324 251.723886 
L 370.553324 251.723886 
L 369.039077 251.723886 
z
" style="fill:#989898;"/>
   </g>
   <g id="patch_305">
    <path clip-path="url(#p1ccfb6e3f4)" d="M 372.067571 252 
L 373.581818 252 
L 373.581818 252 
L 372.067571 252 
z
" style="fill:#989898;"/>
   </g>
   <g id="matplotlib.axis_1">
    <g id="xtick_1">
     <g id="line2d_1">
      <defs>
       <path d="M 0 0 
L 0 3.5 
" id="m2f207b2928" style="stroke:#000000;stroke-width:0.8;"/>
      </defs>
      <g>
       <use style="stroke:#000000;stroke-width:0.8;" x="69.975305" xlink:href="#m2f207b2928" y="252"/>
      </g>
     </g>
     <g id="text_1">
      <!-- 1 -->
      <defs>
       <path d="M 12.40625 8.296875 
L 28.515625 8.296875 
L 28.515625 63.921875 
L 10.984375 60.40625 
L 10.984375 69.390625 
L 28.421875 72.90625 
L 38.28125 72.90625 
L 38.28125 8.296875 
L 54.390625 8.296875 
L 54.390625 0 
L 12.40625 0 
z
" id="DejaVuSans-49"/>
      </defs>
      <g transform="translate(66.794055 266.598437)scale(0.1 -0.1)">
       <use xlink:href="#DejaVuSans-49"/>
      </g>
     </g>
    </g>
    <g id="xtick_2">
     <g id="line2d_2">
      <g>
       <use style="stroke:#000000;stroke-width:0.8;" x="85.117775" xlink:href="#m2f207b2928" y="252"/>
      </g>
     </g>
     <g id="text_2">
      <!-- 6 -->
      <defs>
       <path d="M 33.015625 40.375 
Q 26.375 40.375 22.484375 35.828125 
Q 18.609375 31.296875 18.609375 23.390625 
Q 18.609375 15.53125 22.484375 10.953125 
Q 26.375 6.390625 33.015625 6.390625 
Q 39.65625 6.390625 43.53125 10.953125 
Q 47.40625 15.53125 47.40625 23.390625 
Q 47.40625 31.296875 43.53125 35.828125 
Q 39.65625 40.375 33.015625 40.375 
z
M 52.59375 71.296875 
L 52.59375 62.3125 
Q 48.875 64.0625 45.09375 64.984375 
Q 41.3125 65.921875 37.59375 65.921875 
Q 27.828125 65.921875 22.671875 59.328125 
Q 17.53125 52.734375 16.796875 39.40625 
Q 19.671875 43.65625 24.015625 45.921875 
Q 28.375 48.1875 33.59375 48.1875 
Q 44.578125 48.1875 50.953125 41.515625 
Q 57.328125 34.859375 57.328125 23.390625 
Q 57.328125 12.15625 50.6875 5.359375 
Q 44.046875 -1.421875 33.015625 -1.421875 
Q 20.359375 -1.421875 13.671875 8.265625 
Q 6.984375 17.96875 6.984375 36.375 
Q 6.984375 53.65625 15.1875 63.9375 
Q 23.390625 74.21875 37.203125 74.21875 
Q 40.921875 74.21875 44.703125 73.484375 
Q 48.484375 72.75 52.59375 71.296875 
z
" id="DejaVuSans-54"/>
      </defs>
      <g transform="translate(81.936525 266.598437)scale(0.1 -0.1)">
       <use xlink:href="#DejaVuSans-54"/>
      </g>
     </g>
    </g>
    <g id="xtick_3">
     <g id="line2d_3">
      <g>
       <use style="stroke:#000000;stroke-width:0.8;" x="100.260244" xlink:href="#m2f207b2928" y="252"/>
      </g>
     </g>
     <g id="text_3">
      <!-- 11 -->
      <g transform="translate(93.897744 266.598437)scale(0.1 -0.1)">
       <use xlink:href="#DejaVuSans-49"/>
       <use x="63.623047" xlink:href="#DejaVuSans-49"/>
      </g>
     </g>
    </g>
    <g id="xtick_4">
     <g id="line2d_4">
      <g>
       <use style="stroke:#000000;stroke-width:0.8;" x="115.402714" xlink:href="#m2f207b2928" y="252"/>
      </g>
     </g>
     <g id="text_4">
      <!-- 16 -->
      <g transform="translate(109.040214 266.598437)scale(0.1 -0.1)">
       <use xlink:href="#DejaVuSans-49"/>
       <use x="63.623047" xlink:href="#DejaVuSans-54"/>
      </g>
     </g>
    </g>
    <g id="xtick_5">
     <g id="line2d_5">
      <g>
       <use style="stroke:#000000;stroke-width:0.8;" x="130.545183" xlink:href="#m2f207b2928" y="252"/>
      </g>
     </g>
     <g id="text_5">
      <!-- 21 -->
      <defs>
       <path d="M 19.1875 8.296875 
L 53.609375 8.296875 
L 53.609375 0 
L 7.328125 0 
L 7.328125 8.296875 
Q 12.9375 14.109375 22.625 23.890625 
Q 32.328125 33.6875 34.8125 36.53125 
Q 39.546875 41.84375 41.421875 45.53125 
Q 43.3125 49.21875 43.3125 52.78125 
Q 43.3125 58.59375 39.234375 62.25 
Q 35.15625 65.921875 28.609375 65.921875 
Q 23.96875 65.921875 18.8125 64.3125 
Q 13.671875 62.703125 7.8125 59.421875 
L 7.8125 69.390625 
Q 13.765625 71.78125 18.9375 73 
Q 24.125 74.21875 28.421875 74.21875 
Q 39.75 74.21875 46.484375 68.546875 
Q 53.21875 62.890625 53.21875 53.421875 
Q 53.21875 48.921875 51.53125 44.890625 
Q 49.859375 40.875 45.40625 35.40625 
Q 44.1875 33.984375 37.640625 27.21875 
Q 31.109375 20.453125 19.1875 8.296875 
z
" id="DejaVuSans-50"/>
      </defs>
      <g transform="translate(124.182683 266.598437)scale(0.1 -0.1)">
       <use xlink:href="#DejaVuSans-50"/>
       <use x="63.623047" xlink:href="#DejaVuSans-49"/>
      </g>
     </g>
    </g>
    <g id="xtick_6">
     <g id="line2d_6">
      <g>
       <use style="stroke:#000000;stroke-width:0.8;" x="145.687653" xlink:href="#m2f207b2928" y="252"/>
      </g>
     </g>
     <g id="text_6">
      <!-- 26 -->
      <g transform="translate(139.325153 266.598437)scale(0.1 -0.1)">
       <use xlink:href="#DejaVuSans-50"/>
       <use x="63.623047" xlink:href="#DejaVuSans-54"/>
      </g>
     </g>
    </g>
    <g id="xtick_7">
     <g id="line2d_7">
      <g>
       <use style="stroke:#000000;stroke-width:0.8;" x="160.830122" xlink:href="#m2f207b2928" y="252"/>
      </g>
     </g>
     <g id="text_7">
      <!-- 31 -->
      <defs>
       <path d="M 40.578125 39.3125 
Q 47.65625 37.796875 51.625 33 
Q 55.609375 28.21875 55.609375 21.1875 
Q 55.609375 10.40625 48.1875 4.484375 
Q 40.765625 -1.421875 27.09375 -1.421875 
Q 22.515625 -1.421875 17.65625 -0.515625 
Q 12.796875 0.390625 7.625 2.203125 
L 7.625 11.71875 
Q 11.71875 9.328125 16.59375 8.109375 
Q 21.484375 6.890625 26.8125 6.890625 
Q 36.078125 6.890625 40.9375 10.546875 
Q 45.796875 14.203125 45.796875 21.1875 
Q 45.796875 27.640625 41.28125 31.265625 
Q 36.765625 34.90625 28.71875 34.90625 
L 20.21875 34.90625 
L 20.21875 43.015625 
L 29.109375 43.015625 
Q 36.375 43.015625 40.234375 45.921875 
Q 44.09375 48.828125 44.09375 54.296875 
Q 44.09375 59.90625 40.109375 62.90625 
Q 36.140625 65.921875 28.71875 65.921875 
Q 24.65625 65.921875 20.015625 65.03125 
Q 15.375 64.15625 9.8125 62.3125 
L 9.8125 71.09375 
Q 15.4375 72.65625 20.34375 73.4375 
Q 25.25 74.21875 29.59375 74.21875 
Q 40.828125 74.21875 47.359375 69.109375 
Q 53.90625 64.015625 53.90625 55.328125 
Q 53.90625 49.265625 50.4375 45.09375 
Q 46.96875 40.921875 40.578125 39.3125 
z
" id="DejaVuSans-51"/>
      </defs>
      <g transform="translate(154.467622 266.598437)scale(0.1 -0.1)">
       <use xlink:href="#DejaVuSans-51"/>
       <use x="63.623047" xlink:href="#DejaVuSans-49"/>
      </g>
     </g>
    </g>
    <g id="xtick_8">
     <g id="line2d_8">
      <g>
       <use style="stroke:#000000;stroke-width:0.8;" x="175.972592" xlink:href="#m2f207b2928" y="252"/>
      </g>
     </g>
     <g id="text_8">
      <!-- 36 -->
      <g transform="translate(169.610092 266.598437)scale(0.1 -0.1)">
       <use xlink:href="#DejaVuSans-51"/>
       <use x="63.623047" xlink:href="#DejaVuSans-54"/>
      </g>
     </g>
    </g>
    <g id="xtick_9">
     <g id="line2d_9">
      <g>
       <use style="stroke:#000000;stroke-width:0.8;" x="191.115061" xlink:href="#m2f207b2928" y="252"/>
      </g>
     </g>
     <g id="text_9">
      <!-- 41 -->
      <defs>
       <path d="M 37.796875 64.3125 
L 12.890625 25.390625 
L 37.796875 25.390625 
z
M 35.203125 72.90625 
L 47.609375 72.90625 
L 47.609375 25.390625 
L 58.015625 25.390625 
L 58.015625 17.1875 
L 47.609375 17.1875 
L 47.609375 0 
L 37.796875 0 
L 37.796875 17.1875 
L 4.890625 17.1875 
L 4.890625 26.703125 
z
" id="DejaVuSans-52"/>
      </defs>
      <g transform="translate(184.752561 266.598437)scale(0.1 -0.1)">
       <use xlink:href="#DejaVuSans-52"/>
       <use x="63.623047" xlink:href="#DejaVuSans-49"/>
      </g>
     </g>
    </g>
    <g id="xtick_10">
     <g id="line2d_10">
      <g>
       <use style="stroke:#000000;stroke-width:0.8;" x="206.257531" xlink:href="#m2f207b2928" y="252"/>
      </g>
     </g>
     <g id="text_10">
      <!-- 46 -->
      <g transform="translate(199.895031 266.598437)scale(0.1 -0.1)">
       <use xlink:href="#DejaVuSans-52"/>
       <use x="63.623047" xlink:href="#DejaVuSans-54"/>
      </g>
     </g>
    </g>
    <g id="xtick_11">
     <g id="line2d_11">
      <g>
       <use style="stroke:#000000;stroke-width:0.8;" x="221.4" xlink:href="#m2f207b2928" y="252"/>
      </g>
     </g>
     <g id="text_11">
      <!-- 51 -->
      <defs>
       <path d="M 10.796875 72.90625 
L 49.515625 72.90625 
L 49.515625 64.59375 
L 19.828125 64.59375 
L 19.828125 46.734375 
Q 21.96875 47.46875 24.109375 47.828125 
Q 26.265625 48.1875 28.421875 48.1875 
Q 40.625 48.1875 47.75 41.5 
Q 54.890625 34.8125 54.890625 23.390625 
Q 54.890625 11.625 47.5625 5.09375 
Q 40.234375 -1.421875 26.90625 -1.421875 
Q 22.3125 -1.421875 17.546875 -0.640625 
Q 12.796875 0.140625 7.71875 1.703125 
L 7.71875 11.625 
Q 12.109375 9.234375 16.796875 8.0625 
Q 21.484375 6.890625 26.703125 6.890625 
Q 35.15625 6.890625 40.078125 11.328125 
Q 45.015625 15.765625 45.015625 23.390625 
Q 45.015625 31 40.078125 35.4375 
Q 35.15625 39.890625 26.703125 39.890625 
Q 22.75 39.890625 18.8125 39.015625 
Q 14.890625 38.140625 10.796875 36.28125 
z
" id="DejaVuSans-53"/>
      </defs>
      <g transform="translate(215.0375 266.598437)scale(0.1 -0.1)">
       <use xlink:href="#DejaVuSans-53"/>
       <use x="63.623047" xlink:href="#DejaVuSans-49"/>
      </g>
     </g>
    </g>
    <g id="xtick_12">
     <g id="line2d_12">
      <g>
       <use style="stroke:#000000;stroke-width:0.8;" x="236.542469" xlink:href="#m2f207b2928" y="252"/>
      </g>
     </g>
     <g id="text_12">
      <!-- 56 -->
      <g transform="translate(230.179969 266.598437)scale(0.1 -0.1)">
       <use xlink:href="#DejaVuSans-53"/>
       <use x="63.623047" xlink:href="#DejaVuSans-54"/>
      </g>
     </g>
    </g>
    <g id="xtick_13">
     <g id="line2d_13">
      <g>
       <use style="stroke:#000000;stroke-width:0.8;" x="251.684939" xlink:href="#m2f207b2928" y="252"/>
      </g>
     </g>
     <g id="text_13">
      <!-- 61 -->
      <g transform="translate(245.322439 266.598437)scale(0.1 -0.1)">
       <use xlink:href="#DejaVuSans-54"/>
       <use x="63.623047" xlink:href="#DejaVuSans-49"/>
      </g>
     </g>
    </g>
    <g id="xtick_14">
     <g id="line2d_14">
      <g>
       <use style="stroke:#000000;stroke-width:0.8;" x="266.827408" xlink:href="#m2f207b2928" y="252"/>
      </g>
     </g>
     <g id="text_14">
      <!-- 66 -->
      <g transform="translate(260.464908 266.598437)scale(0.1 -0.1)">
       <use xlink:href="#DejaVuSans-54"/>
       <use x="63.623047" xlink:href="#DejaVuSans-54"/>
      </g>
     </g>
    </g>
    <g id="xtick_15">
     <g id="line2d_15">
      <g>
       <use style="stroke:#000000;stroke-width:0.8;" x="281.969878" xlink:href="#m2f207b2928" y="252"/>
      </g>
     </g>
     <g id="text_15">
      <!-- 71 -->
      <defs>
       <path d="M 8.203125 72.90625 
L 55.078125 72.90625 
L 55.078125 68.703125 
L 28.609375 0 
L 18.3125 0 
L 43.21875 64.59375 
L 8.203125 64.59375 
z
" id="DejaVuSans-55"/>
      </defs>
      <g transform="translate(275.607378 266.598437)scale(0.1 -0.1)">
       <use xlink:href="#DejaVuSans-55"/>
       <use x="63.623047" xlink:href="#DejaVuSans-49"/>
      </g>
     </g>
    </g>
    <g id="xtick_16">
     <g id="line2d_16">
      <g>
       <use style="stroke:#000000;stroke-width:0.8;" x="297.112347" xlink:href="#m2f207b2928" y="252"/>
      </g>
     </g>
     <g id="text_16">
      <!-- 76 -->
      <g transform="translate(290.749847 266.598437)scale(0.1 -0.1)">
       <use xlink:href="#DejaVuSans-55"/>
       <use x="63.623047" xlink:href="#DejaVuSans-54"/>
      </g>
     </g>
    </g>
    <g id="xtick_17">
     <g id="line2d_17">
      <g>
       <use style="stroke:#000000;stroke-width:0.8;" x="312.254817" xlink:href="#m2f207b2928" y="252"/>
      </g>
     </g>
     <g id="text_17">
      <!-- 81 -->
      <defs>
       <path d="M 31.78125 34.625 
Q 24.75 34.625 20.71875 30.859375 
Q 16.703125 27.09375 16.703125 20.515625 
Q 16.703125 13.921875 20.71875 10.15625 
Q 24.75 6.390625 31.78125 6.390625 
Q 38.8125 6.390625 42.859375 10.171875 
Q 46.921875 13.96875 46.921875 20.515625 
Q 46.921875 27.09375 42.890625 30.859375 
Q 38.875 34.625 31.78125 34.625 
z
M 21.921875 38.8125 
Q 15.578125 40.375 12.03125 44.71875 
Q 8.5 49.078125 8.5 55.328125 
Q 8.5 64.0625 14.71875 69.140625 
Q 20.953125 74.21875 31.78125 74.21875 
Q 42.671875 74.21875 48.875 69.140625 
Q 55.078125 64.0625 55.078125 55.328125 
Q 55.078125 49.078125 51.53125 44.71875 
Q 48 40.375 41.703125 38.8125 
Q 48.828125 37.15625 52.796875 32.3125 
Q 56.78125 27.484375 56.78125 20.515625 
Q 56.78125 9.90625 50.3125 4.234375 
Q 43.84375 -1.421875 31.78125 -1.421875 
Q 19.734375 -1.421875 13.25 4.234375 
Q 6.78125 9.90625 6.78125 20.515625 
Q 6.78125 27.484375 10.78125 32.3125 
Q 14.796875 37.15625 21.921875 38.8125 
z
M 18.3125 54.390625 
Q 18.3125 48.734375 21.84375 45.5625 
Q 25.390625 42.390625 31.78125 42.390625 
Q 38.140625 42.390625 41.71875 45.5625 
Q 45.3125 48.734375 45.3125 54.390625 
Q 45.3125 60.0625 41.71875 63.234375 
Q 38.140625 66.40625 31.78125 66.40625 
Q 25.390625 66.40625 21.84375 63.234375 
Q 18.3125 60.0625 18.3125 54.390625 
z
" id="DejaVuSans-56"/>
      </defs>
      <g transform="translate(305.892317 266.598437)scale(0.1 -0.1)">
       <use xlink:href="#DejaVuSans-56"/>
       <use x="63.623047" xlink:href="#DejaVuSans-49"/>
      </g>
     </g>
    </g>
    <g id="xtick_18">
     <g id="line2d_18">
      <g>
       <use style="stroke:#000000;stroke-width:0.8;" x="327.397286" xlink:href="#m2f207b2928" y="252"/>
      </g>
     </g>
     <g id="text_18">
      <!-- 86 -->
      <g transform="translate(321.034786 266.598437)scale(0.1 -0.1)">
       <use xlink:href="#DejaVuSans-56"/>
       <use x="63.623047" xlink:href="#DejaVuSans-54"/>
      </g>
     </g>
    </g>
    <g id="xtick_19">
     <g id="line2d_19">
      <g>
       <use style="stroke:#000000;stroke-width:0.8;" x="342.539756" xlink:href="#m2f207b2928" y="252"/>
      </g>
     </g>
     <g id="text_19">
      <!-- 91 -->
      <defs>
       <path d="M 10.984375 1.515625 
L 10.984375 10.5 
Q 14.703125 8.734375 18.5 7.8125 
Q 22.3125 6.890625 25.984375 6.890625 
Q 35.75 6.890625 40.890625 13.453125 
Q 46.046875 20.015625 46.78125 33.40625 
Q 43.953125 29.203125 39.59375 26.953125 
Q 35.25 24.703125 29.984375 24.703125 
Q 19.046875 24.703125 12.671875 31.3125 
Q 6.296875 37.9375 6.296875 49.421875 
Q 6.296875 60.640625 12.9375 67.421875 
Q 19.578125 74.21875 30.609375 74.21875 
Q 43.265625 74.21875 49.921875 64.515625 
Q 56.59375 54.828125 56.59375 36.375 
Q 56.59375 19.140625 48.40625 8.859375 
Q 40.234375 -1.421875 26.421875 -1.421875 
Q 22.703125 -1.421875 18.890625 -0.6875 
Q 15.09375 0.046875 10.984375 1.515625 
z
M 30.609375 32.421875 
Q 37.25 32.421875 41.125 36.953125 
Q 45.015625 41.5 45.015625 49.421875 
Q 45.015625 57.28125 41.125 61.84375 
Q 37.25 66.40625 30.609375 66.40625 
Q 23.96875 66.40625 20.09375 61.84375 
Q 16.21875 57.28125 16.21875 49.421875 
Q 16.21875 41.5 20.09375 36.953125 
Q 23.96875 32.421875 30.609375 32.421875 
z
" id="DejaVuSans-57"/>
      </defs>
      <g transform="translate(336.177256 266.598437)scale(0.1 -0.1)">
       <use xlink:href="#DejaVuSans-57"/>
       <use x="63.623047" xlink:href="#DejaVuSans-49"/>
      </g>
     </g>
    </g>
    <g id="xtick_20">
     <g id="line2d_20">
      <g>
       <use style="stroke:#000000;stroke-width:0.8;" x="357.682225" xlink:href="#m2f207b2928" y="252"/>
      </g>
     </g>
     <g id="text_20">
      <!-- 96 -->
      <g transform="translate(351.319725 266.598437)scale(0.1 -0.1)">
       <use xlink:href="#DejaVuSans-57"/>
       <use x="63.623047" xlink:href="#DejaVuSans-54"/>
      </g>
     </g>
    </g>
    <g id="text_21">
     <!-- Age -->
     <defs>
      <path d="M 34.1875 63.1875 
L 20.796875 26.90625 
L 47.609375 26.90625 
z
M 28.609375 72.90625 
L 39.796875 72.90625 
L 67.578125 0 
L 57.328125 0 
L 50.6875 18.703125 
L 17.828125 18.703125 
L 11.1875 0 
L 0.78125 0 
z
" id="DejaVuSans-65"/>
      <path d="M 45.40625 27.984375 
Q 45.40625 37.75 41.375 43.109375 
Q 37.359375 48.484375 30.078125 48.484375 
Q 22.859375 48.484375 18.828125 43.109375 
Q 14.796875 37.75 14.796875 27.984375 
Q 14.796875 18.265625 18.828125 12.890625 
Q 22.859375 7.515625 30.078125 7.515625 
Q 37.359375 7.515625 41.375 12.890625 
Q 45.40625 18.265625 45.40625 27.984375 
z
M 54.390625 6.78125 
Q 54.390625 -7.171875 48.1875 -13.984375 
Q 42 -20.796875 29.203125 -20.796875 
Q 24.46875 -20.796875 20.265625 -20.09375 
Q 16.0625 -19.390625 12.109375 -17.921875 
L 12.109375 -9.1875 
Q 16.0625 -11.328125 19.921875 -12.34375 
Q 23.78125 -13.375 27.78125 -13.375 
Q 36.625 -13.375 41.015625 -8.765625 
Q 45.40625 -4.15625 45.40625 5.171875 
L 45.40625 9.625 
Q 42.625 4.78125 38.28125 2.390625 
Q 33.9375 0 27.875 0 
Q 17.828125 0 11.671875 7.65625 
Q 5.515625 15.328125 5.515625 27.984375 
Q 5.515625 40.671875 11.671875 48.328125 
Q 17.828125 56 27.875 56 
Q 33.9375 56 38.28125 53.609375 
Q 42.625 51.21875 45.40625 46.390625 
L 45.40625 54.6875 
L 54.390625 54.6875 
z
" id="DejaVuSans-103"/>
      <path d="M 56.203125 29.59375 
L 56.203125 25.203125 
L 14.890625 25.203125 
Q 15.484375 15.921875 20.484375 11.0625 
Q 25.484375 6.203125 34.421875 6.203125 
Q 39.59375 6.203125 44.453125 7.46875 
Q 49.3125 8.734375 54.109375 11.28125 
L 54.109375 2.78125 
Q 49.265625 0.734375 44.1875 -0.34375 
Q 39.109375 -1.421875 33.890625 -1.421875 
Q 20.796875 -1.421875 13.15625 6.1875 
Q 5.515625 13.8125 5.515625 26.8125 
Q 5.515625 40.234375 12.765625 48.109375 
Q 20.015625 56 32.328125 56 
Q 43.359375 56 49.78125 48.890625 
Q 56.203125 41.796875 56.203125 29.59375 
z
M 47.21875 32.234375 
Q 47.125 39.59375 43.09375 43.984375 
Q 39.0625 48.390625 32.421875 48.390625 
Q 24.90625 48.390625 20.390625 44.140625 
Q 15.875 39.890625 15.1875 32.171875 
z
" id="DejaVuSans-101"/>
     </defs>
     <g transform="translate(211.728906 280.276563)scale(0.1 -0.1)">
      <use xlink:href="#DejaVuSans-65"/>
      <use x="68.408203" xlink:href="#DejaVuSans-103"/>
      <use x="131.884766" xlink:href="#DejaVuSans-101"/>
     </g>
    </g>
   </g>
   <g id="matplotlib.axis_2">
    <g id="ytick_1">
     <g id="line2d_21">
      <defs>
       <path d="M 0 0 
L -3.5 0 
" id="m0666ca60a6" style="stroke:#000000;stroke-width:0.8;"/>
      </defs>
      <g>
       <use style="stroke:#000000;stroke-width:0.8;" x="54" xlink:href="#m0666ca60a6" y="252"/>
      </g>
     </g>
     <g id="text_22">
      <!-- 0 -->
      <defs>
       <path d="M 31.78125 66.40625 
Q 24.171875 66.40625 20.328125 58.90625 
Q 16.5 51.421875 16.5 36.375 
Q 16.5 21.390625 20.328125 13.890625 
Q 24.171875 6.390625 31.78125 6.390625 
Q 39.453125 6.390625 43.28125 13.890625 
Q 47.125 21.390625 47.125 36.375 
Q 47.125 51.421875 43.28125 58.90625 
Q 39.453125 66.40625 31.78125 66.40625 
z
M 31.78125 74.21875 
Q 44.046875 74.21875 50.515625 64.515625 
Q 56.984375 54.828125 56.984375 36.375 
Q 56.984375 17.96875 50.515625 8.265625 
Q 44.046875 -1.421875 31.78125 -1.421875 
Q 19.53125 -1.421875 13.0625 8.265625 
Q 6.59375 17.96875 6.59375 36.375 
Q 6.59375 54.828125 13.0625 64.515625 
Q 19.53125 74.21875 31.78125 74.21875 
z
" id="DejaVuSans-48"/>
      </defs>
      <g transform="translate(40.6375 255.799219)scale(0.1 -0.1)">
       <use xlink:href="#DejaVuSans-48"/>
      </g>
     </g>
    </g>
    <g id="ytick_2">
     <g id="line2d_22">
      <g>
       <use style="stroke:#000000;stroke-width:0.8;" x="54" xlink:href="#m0666ca60a6" y="217.485714"/>
      </g>
     </g>
     <g id="text_23">
      <!-- 500 -->
      <g transform="translate(27.9125 221.284933)scale(0.1 -0.1)">
       <use xlink:href="#DejaVuSans-53"/>
       <use x="63.623047" xlink:href="#DejaVuSans-48"/>
       <use x="127.246094" xlink:href="#DejaVuSans-48"/>
      </g>
     </g>
    </g>
    <g id="ytick_3">
     <g id="line2d_23">
      <g>
       <use style="stroke:#000000;stroke-width:0.8;" x="54" xlink:href="#m0666ca60a6" y="182.971429"/>
      </g>
     </g>
     <g id="text_24">
      <!-- 1000 -->
      <g transform="translate(21.55 186.770647)scale(0.1 -0.1)">
       <use xlink:href="#DejaVuSans-49"/>
       <use x="63.623047" xlink:href="#DejaVuSans-48"/>
       <use x="127.246094" xlink:href="#DejaVuSans-48"/>
       <use x="190.869141" xlink:href="#DejaVuSans-48"/>
      </g>
     </g>
    </g>
    <g id="ytick_4">
     <g id="line2d_24">
      <g>
       <use style="stroke:#000000;stroke-width:0.8;" x="54" xlink:href="#m0666ca60a6" y="148.457143"/>
      </g>
     </g>
     <g id="text_25">
      <!-- 1500 -->
      <g transform="translate(21.55 152.256362)scale(0.1 -0.1)">
       <use xlink:href="#DejaVuSans-49"/>
       <use x="63.623047" xlink:href="#DejaVuSans-53"/>
       <use x="127.246094" xlink:href="#DejaVuSans-48"/>
       <use x="190.869141" xlink:href="#DejaVuSans-48"/>
      </g>
     </g>
    </g>
    <g id="ytick_5">
     <g id="line2d_25">
      <g>
       <use style="stroke:#000000;stroke-width:0.8;" x="54" xlink:href="#m0666ca60a6" y="113.942857"/>
      </g>
     </g>
     <g id="text_26">
      <!-- 2000 -->
      <g transform="translate(21.55 117.742076)scale(0.1 -0.1)">
       <use xlink:href="#DejaVuSans-50"/>
       <use x="63.623047" xlink:href="#DejaVuSans-48"/>
       <use x="127.246094" xlink:href="#DejaVuSans-48"/>
       <use x="190.869141" xlink:href="#DejaVuSans-48"/>
      </g>
     </g>
    </g>
    <g id="ytick_6">
     <g id="line2d_26">
      <g>
       <use style="stroke:#000000;stroke-width:0.8;" x="54" xlink:href="#m0666ca60a6" y="79.428571"/>
      </g>
     </g>
     <g id="text_27">
      <!-- 2500 -->
      <g transform="translate(21.55 83.22779)scale(0.1 -0.1)">
       <use xlink:href="#DejaVuSans-50"/>
       <use x="63.623047" xlink:href="#DejaVuSans-53"/>
       <use x="127.246094" xlink:href="#DejaVuSans-48"/>
       <use x="190.869141" xlink:href="#DejaVuSans-48"/>
      </g>
     </g>
    </g>
    <g id="ytick_7">
     <g id="line2d_27">
      <g>
       <use style="stroke:#000000;stroke-width:0.8;" x="54" xlink:href="#m0666ca60a6" y="44.914286"/>
      </g>
     </g>
     <g id="text_28">
      <!-- 3000 -->
      <g transform="translate(21.55 48.713504)scale(0.1 -0.1)">
       <use xlink:href="#DejaVuSans-51"/>
       <use x="63.623047" xlink:href="#DejaVuSans-48"/>
       <use x="127.246094" xlink:href="#DejaVuSans-48"/>
       <use x="190.869141" xlink:href="#DejaVuSans-48"/>
      </g>
     </g>
    </g>
    <g id="text_29">
     <!-- Number of Faces -->
     <defs>
      <path d="M 9.8125 72.90625 
L 23.09375 72.90625 
L 55.421875 11.921875 
L 55.421875 72.90625 
L 64.984375 72.90625 
L 64.984375 0 
L 51.703125 0 
L 19.390625 60.984375 
L 19.390625 0 
L 9.8125 0 
z
" id="DejaVuSans-78"/>
      <path d="M 8.5 21.578125 
L 8.5 54.6875 
L 17.484375 54.6875 
L 17.484375 21.921875 
Q 17.484375 14.15625 20.5 10.265625 
Q 23.53125 6.390625 29.59375 6.390625 
Q 36.859375 6.390625 41.078125 11.03125 
Q 45.3125 15.671875 45.3125 23.6875 
L 45.3125 54.6875 
L 54.296875 54.6875 
L 54.296875 0 
L 45.3125 0 
L 45.3125 8.40625 
Q 42.046875 3.421875 37.71875 1 
Q 33.40625 -1.421875 27.6875 -1.421875 
Q 18.265625 -1.421875 13.375 4.4375 
Q 8.5 10.296875 8.5 21.578125 
z
M 31.109375 56 
z
" id="DejaVuSans-117"/>
      <path d="M 52 44.1875 
Q 55.375 50.25 60.0625 53.125 
Q 64.75 56 71.09375 56 
Q 79.640625 56 84.28125 50.015625 
Q 88.921875 44.046875 88.921875 33.015625 
L 88.921875 0 
L 79.890625 0 
L 79.890625 32.71875 
Q 79.890625 40.578125 77.09375 44.375 
Q 74.3125 48.1875 68.609375 48.1875 
Q 61.625 48.1875 57.5625 43.546875 
Q 53.515625 38.921875 53.515625 30.90625 
L 53.515625 0 
L 44.484375 0 
L 44.484375 32.71875 
Q 44.484375 40.625 41.703125 44.40625 
Q 38.921875 48.1875 33.109375 48.1875 
Q 26.21875 48.1875 22.15625 43.53125 
Q 18.109375 38.875 18.109375 30.90625 
L 18.109375 0 
L 9.078125 0 
L 9.078125 54.6875 
L 18.109375 54.6875 
L 18.109375 46.1875 
Q 21.1875 51.21875 25.484375 53.609375 
Q 29.78125 56 35.6875 56 
Q 41.65625 56 45.828125 52.96875 
Q 50 49.953125 52 44.1875 
z
" id="DejaVuSans-109"/>
      <path d="M 48.6875 27.296875 
Q 48.6875 37.203125 44.609375 42.84375 
Q 40.53125 48.484375 33.40625 48.484375 
Q 26.265625 48.484375 22.1875 42.84375 
Q 18.109375 37.203125 18.109375 27.296875 
Q 18.109375 17.390625 22.1875 11.75 
Q 26.265625 6.109375 33.40625 6.109375 
Q 40.53125 6.109375 44.609375 11.75 
Q 48.6875 17.390625 48.6875 27.296875 
z
M 18.109375 46.390625 
Q 20.953125 51.265625 25.265625 53.625 
Q 29.59375 56 35.59375 56 
Q 45.5625 56 51.78125 48.09375 
Q 58.015625 40.1875 58.015625 27.296875 
Q 58.015625 14.40625 51.78125 6.484375 
Q 45.5625 -1.421875 35.59375 -1.421875 
Q 29.59375 -1.421875 25.265625 0.953125 
Q 20.953125 3.328125 18.109375 8.203125 
L 18.109375 0 
L 9.078125 0 
L 9.078125 75.984375 
L 18.109375 75.984375 
z
" id="DejaVuSans-98"/>
      <path d="M 41.109375 46.296875 
Q 39.59375 47.171875 37.8125 47.578125 
Q 36.03125 48 33.890625 48 
Q 26.265625 48 22.1875 43.046875 
Q 18.109375 38.09375 18.109375 28.8125 
L 18.109375 0 
L 9.078125 0 
L 9.078125 54.6875 
L 18.109375 54.6875 
L 18.109375 46.1875 
Q 20.953125 51.171875 25.484375 53.578125 
Q 30.03125 56 36.53125 56 
Q 37.453125 56 38.578125 55.875 
Q 39.703125 55.765625 41.0625 55.515625 
z
" id="DejaVuSans-114"/>
      <path id="DejaVuSans-32"/>
      <path d="M 30.609375 48.390625 
Q 23.390625 48.390625 19.1875 42.75 
Q 14.984375 37.109375 14.984375 27.296875 
Q 14.984375 17.484375 19.15625 11.84375 
Q 23.34375 6.203125 30.609375 6.203125 
Q 37.796875 6.203125 41.984375 11.859375 
Q 46.1875 17.53125 46.1875 27.296875 
Q 46.1875 37.015625 41.984375 42.703125 
Q 37.796875 48.390625 30.609375 48.390625 
z
M 30.609375 56 
Q 42.328125 56 49.015625 48.375 
Q 55.71875 40.765625 55.71875 27.296875 
Q 55.71875 13.875 49.015625 6.21875 
Q 42.328125 -1.421875 30.609375 -1.421875 
Q 18.84375 -1.421875 12.171875 6.21875 
Q 5.515625 13.875 5.515625 27.296875 
Q 5.515625 40.765625 12.171875 48.375 
Q 18.84375 56 30.609375 56 
z
" id="DejaVuSans-111"/>
      <path d="M 37.109375 75.984375 
L 37.109375 68.5 
L 28.515625 68.5 
Q 23.6875 68.5 21.796875 66.546875 
Q 19.921875 64.59375 19.921875 59.515625 
L 19.921875 54.6875 
L 34.71875 54.6875 
L 34.71875 47.703125 
L 19.921875 47.703125 
L 19.921875 0 
L 10.890625 0 
L 10.890625 47.703125 
L 2.296875 47.703125 
L 2.296875 54.6875 
L 10.890625 54.6875 
L 10.890625 58.5 
Q 10.890625 67.625 15.140625 71.796875 
Q 19.390625 75.984375 28.609375 75.984375 
z
" id="DejaVuSans-102"/>
      <path d="M 9.8125 72.90625 
L 51.703125 72.90625 
L 51.703125 64.59375 
L 19.671875 64.59375 
L 19.671875 43.109375 
L 48.578125 43.109375 
L 48.578125 34.8125 
L 19.671875 34.8125 
L 19.671875 0 
L 9.8125 0 
z
" id="DejaVuSans-70"/>
      <path d="M 34.28125 27.484375 
Q 23.390625 27.484375 19.1875 25 
Q 14.984375 22.515625 14.984375 16.5 
Q 14.984375 11.71875 18.140625 8.90625 
Q 21.296875 6.109375 26.703125 6.109375 
Q 34.1875 6.109375 38.703125 11.40625 
Q 43.21875 16.703125 43.21875 25.484375 
L 43.21875 27.484375 
z
M 52.203125 31.203125 
L 52.203125 0 
L 43.21875 0 
L 43.21875 8.296875 
Q 40.140625 3.328125 35.546875 0.953125 
Q 30.953125 -1.421875 24.3125 -1.421875 
Q 15.921875 -1.421875 10.953125 3.296875 
Q 6 8.015625 6 15.921875 
Q 6 25.140625 12.171875 29.828125 
Q 18.359375 34.515625 30.609375 34.515625 
L 43.21875 34.515625 
L 43.21875 35.40625 
Q 43.21875 41.609375 39.140625 45 
Q 35.0625 48.390625 27.6875 48.390625 
Q 23 48.390625 18.546875 47.265625 
Q 14.109375 46.140625 10.015625 43.890625 
L 10.015625 52.203125 
Q 14.9375 54.109375 19.578125 55.046875 
Q 24.21875 56 28.609375 56 
Q 40.484375 56 46.34375 49.84375 
Q 52.203125 43.703125 52.203125 31.203125 
z
" id="DejaVuSans-97"/>
      <path d="M 48.78125 52.59375 
L 48.78125 44.1875 
Q 44.96875 46.296875 41.140625 47.34375 
Q 37.3125 48.390625 33.40625 48.390625 
Q 24.65625 48.390625 19.8125 42.84375 
Q 14.984375 37.3125 14.984375 27.296875 
Q 14.984375 17.28125 19.8125 11.734375 
Q 24.65625 6.203125 33.40625 6.203125 
Q 37.3125 6.203125 41.140625 7.25 
Q 44.96875 8.296875 48.78125 10.40625 
L 48.78125 2.09375 
Q 45.015625 0.34375 40.984375 -0.53125 
Q 36.96875 -1.421875 32.421875 -1.421875 
Q 20.0625 -1.421875 12.78125 6.34375 
Q 5.515625 14.109375 5.515625 27.296875 
Q 5.515625 40.671875 12.859375 48.328125 
Q 20.21875 56 33.015625 56 
Q 37.15625 56 41.109375 55.140625 
Q 45.0625 54.296875 48.78125 52.59375 
z
" id="DejaVuSans-99"/>
      <path d="M 44.28125 53.078125 
L 44.28125 44.578125 
Q 40.484375 46.53125 36.375 47.5 
Q 32.28125 48.484375 27.875 48.484375 
Q 21.1875 48.484375 17.84375 46.4375 
Q 14.5 44.390625 14.5 40.28125 
Q 14.5 37.15625 16.890625 35.375 
Q 19.28125 33.59375 26.515625 31.984375 
L 29.59375 31.296875 
Q 39.15625 29.25 43.1875 25.515625 
Q 47.21875 21.78125 47.21875 15.09375 
Q 47.21875 7.46875 41.1875 3.015625 
Q 35.15625 -1.421875 24.609375 -1.421875 
Q 20.21875 -1.421875 15.453125 -0.5625 
Q 10.6875 0.296875 5.421875 2 
L 5.421875 11.28125 
Q 10.40625 8.6875 15.234375 7.390625 
Q 20.0625 6.109375 24.8125 6.109375 
Q 31.15625 6.109375 34.5625 8.28125 
Q 37.984375 10.453125 37.984375 14.40625 
Q 37.984375 18.0625 35.515625 20.015625 
Q 33.0625 21.96875 24.703125 23.78125 
L 21.578125 24.515625 
Q 13.234375 26.265625 9.515625 29.90625 
Q 5.8125 33.546875 5.8125 39.890625 
Q 5.8125 47.609375 11.28125 51.796875 
Q 16.75 56 26.8125 56 
Q 31.78125 56 36.171875 55.265625 
Q 40.578125 54.546875 44.28125 53.078125 
z
" id="DejaVuSans-115"/>
     </defs>
     <g transform="translate(15.470312 185.277656)rotate(-90)scale(0.1 -0.1)">
      <use xlink:href="#DejaVuSans-78"/>
      <use x="74.804688" xlink:href="#DejaVuSans-117"/>
      <use x="138.183594" xlink:href="#DejaVuSans-109"/>
      <use x="235.595703" xlink:href="#DejaVuSans-98"/>
      <use x="299.072266" xlink:href="#DejaVuSans-101"/>
      <use x="360.595703" xlink:href="#DejaVuSans-114"/>
      <use x="401.708984" xlink:href="#DejaVuSans-32"/>
      <use x="433.496094" xlink:href="#DejaVuSans-111"/>
      <use x="494.677734" xlink:href="#DejaVuSans-102"/>
      <use x="529.882812" xlink:href="#DejaVuSans-32"/>
      <use x="561.669922" xlink:href="#DejaVuSans-70"/>
      <use x="610.064453" xlink:href="#DejaVuSans-97"/>
      <use x="671.34375" xlink:href="#DejaVuSans-99"/>
      <use x="726.324219" xlink:href="#DejaVuSans-101"/>
      <use x="787.847656" xlink:href="#DejaVuSans-115"/>
     </g>
    </g>
   </g>
   <g id="patch_306">
    <path d="M 54 252 
L 54 34.56 
" style="fill:none;stroke:#000000;stroke-linecap:square;stroke-linejoin:miter;stroke-width:0.8;"/>
   </g>
   <g id="patch_307">
    <path d="M 388.8 252 
L 388.8 34.56 
" style="fill:none;stroke:#000000;stroke-linecap:square;stroke-linejoin:miter;stroke-width:0.8;"/>
   </g>
   <g id="patch_308">
    <path d="M 54 252 
L 388.8 252 
" style="fill:none;stroke:#000000;stroke-linecap:square;stroke-linejoin:miter;stroke-width:0.8;"/>
   </g>
   <g id="patch_309">
    <path d="M 54 34.56 
L 388.8 34.56 
" style="fill:none;stroke:#000000;stroke-linecap:square;stroke-linejoin:miter;stroke-width:0.8;"/>
   </g>
   <g id="text_30">
    <!-- CheckFixDataset -->
    <defs>
     <path d="M 64.40625 67.28125 
L 64.40625 56.890625 
Q 59.421875 61.53125 53.78125 63.8125 
Q 48.140625 66.109375 41.796875 66.109375 
Q 29.296875 66.109375 22.65625 58.46875 
Q 16.015625 50.828125 16.015625 36.375 
Q 16.015625 21.96875 22.65625 14.328125 
Q 29.296875 6.6875 41.796875 6.6875 
Q 48.140625 6.6875 53.78125 8.984375 
Q 59.421875 11.28125 64.40625 15.921875 
L 64.40625 5.609375 
Q 59.234375 2.09375 53.4375 0.328125 
Q 47.65625 -1.421875 41.21875 -1.421875 
Q 24.65625 -1.421875 15.125 8.703125 
Q 5.609375 18.84375 5.609375 36.375 
Q 5.609375 53.953125 15.125 64.078125 
Q 24.65625 74.21875 41.21875 74.21875 
Q 47.75 74.21875 53.53125 72.484375 
Q 59.328125 70.75 64.40625 67.28125 
z
" id="DejaVuSans-67"/>
     <path d="M 54.890625 33.015625 
L 54.890625 0 
L 45.90625 0 
L 45.90625 32.71875 
Q 45.90625 40.484375 42.875 44.328125 
Q 39.84375 48.1875 33.796875 48.1875 
Q 26.515625 48.1875 22.3125 43.546875 
Q 18.109375 38.921875 18.109375 30.90625 
L 18.109375 0 
L 9.078125 0 
L 9.078125 75.984375 
L 18.109375 75.984375 
L 18.109375 46.1875 
Q 21.34375 51.125 25.703125 53.5625 
Q 30.078125 56 35.796875 56 
Q 45.21875 56 50.046875 50.171875 
Q 54.890625 44.34375 54.890625 33.015625 
z
" id="DejaVuSans-104"/>
     <path d="M 9.078125 75.984375 
L 18.109375 75.984375 
L 18.109375 31.109375 
L 44.921875 54.6875 
L 56.390625 54.6875 
L 27.390625 29.109375 
L 57.625 0 
L 45.90625 0 
L 18.109375 26.703125 
L 18.109375 0 
L 9.078125 0 
z
" id="DejaVuSans-107"/>
     <path d="M 9.421875 54.6875 
L 18.40625 54.6875 
L 18.40625 0 
L 9.421875 0 
z
M 9.421875 75.984375 
L 18.40625 75.984375 
L 18.40625 64.59375 
L 9.421875 64.59375 
z
" id="DejaVuSans-105"/>
     <path d="M 54.890625 54.6875 
L 35.109375 28.078125 
L 55.90625 0 
L 45.3125 0 
L 29.390625 21.484375 
L 13.484375 0 
L 2.875 0 
L 24.125 28.609375 
L 4.6875 54.6875 
L 15.28125 54.6875 
L 29.78125 35.203125 
L 44.28125 54.6875 
z
" id="DejaVuSans-120"/>
     <path d="M 19.671875 64.796875 
L 19.671875 8.109375 
L 31.59375 8.109375 
Q 46.6875 8.109375 53.6875 14.9375 
Q 60.6875 21.78125 60.6875 36.53125 
Q 60.6875 51.171875 53.6875 57.984375 
Q 46.6875 64.796875 31.59375 64.796875 
z
M 9.8125 72.90625 
L 30.078125 72.90625 
Q 51.265625 72.90625 61.171875 64.09375 
Q 71.09375 55.28125 71.09375 36.53125 
Q 71.09375 17.671875 61.125 8.828125 
Q 51.171875 0 30.078125 0 
L 9.8125 0 
z
" id="DejaVuSans-68"/>
     <path d="M 18.3125 70.21875 
L 18.3125 54.6875 
L 36.8125 54.6875 
L 36.8125 47.703125 
L 18.3125 47.703125 
L 18.3125 18.015625 
Q 18.3125 11.328125 20.140625 9.421875 
Q 21.96875 7.515625 27.59375 7.515625 
L 36.8125 7.515625 
L 36.8125 0 
L 27.59375 0 
Q 17.1875 0 13.234375 3.875 
Q 9.28125 7.765625 9.28125 18.015625 
L 9.28125 47.703125 
L 2.6875 47.703125 
L 2.6875 54.6875 
L 9.28125 54.6875 
L 9.28125 70.21875 
z
" id="DejaVuSans-116"/>
    </defs>
    <g transform="translate(171.212813 28.56)scale(0.12 -0.12)">
     <use xlink:href="#DejaVuSans-67"/>
     <use x="69.824219" xlink:href="#DejaVuSans-104"/>
     <use x="133.203125" xlink:href="#DejaVuSans-101"/>
     <use x="194.726562" xlink:href="#DejaVuSans-99"/>
     <use x="249.707031" xlink:href="#DejaVuSans-107"/>
     <use x="307.617188" xlink:href="#DejaVuSans-70"/>
     <use x="357.886719" xlink:href="#DejaVuSans-105"/>
     <use x="385.669922" xlink:href="#DejaVuSans-120"/>
     <use x="444.849609" xlink:href="#DejaVuSans-68"/>
     <use x="521.851562" xlink:href="#DejaVuSans-97"/>
     <use x="583.130859" xlink:href="#DejaVuSans-116"/>
     <use x="622.339844" xlink:href="#DejaVuSans-97"/>
     <use x="683.619141" xlink:href="#DejaVuSans-115"/>
     <use x="735.71875" xlink:href="#DejaVuSans-101"/>
     <use x="797.242188" xlink:href="#DejaVuSans-116"/>
    </g>
   </g>
   <g id="legend_1">
    <g id="patch_310">
     <path d="M 278.639063 86.594375 
L 381.8 86.594375 
Q 383.8 86.594375 383.8 84.594375 
L 383.8 41.56 
Q 383.8 39.56 381.8 39.56 
L 278.639063 39.56 
Q 276.639063 39.56 276.639063 41.56 
L 276.639063 84.594375 
Q 276.639063 86.594375 278.639063 86.594375 
z
" style="fill:#ffffff;opacity:0.8;stroke:#cccccc;stroke-linejoin:miter;"/>
    </g>
    <g id="patch_311">
     <path d="M 280.639063 51.158438 
L 300.639063 51.158438 
L 300.639063 44.158438 
L 280.639063 44.158438 
z
" style="fill:#051c2c;"/>
    </g>
    <g id="text_31">
     <!-- Asian -->
     <defs>
      <path d="M 54.890625 33.015625 
L 54.890625 0 
L 45.90625 0 
L 45.90625 32.71875 
Q 45.90625 40.484375 42.875 44.328125 
Q 39.84375 48.1875 33.796875 48.1875 
Q 26.515625 48.1875 22.3125 43.546875 
Q 18.109375 38.921875 18.109375 30.90625 
L 18.109375 0 
L 9.078125 0 
L 9.078125 54.6875 
L 18.109375 54.6875 
L 18.109375 46.1875 
Q 21.34375 51.125 25.703125 53.5625 
Q 30.078125 56 35.796875 56 
Q 45.21875 56 50.046875 50.171875 
Q 54.890625 44.34375 54.890625 33.015625 
z
" id="DejaVuSans-110"/>
     </defs>
     <g transform="translate(308.639063 51.158438)scale(0.1 -0.1)">
      <use xlink:href="#DejaVuSans-65"/>
      <use x="68.408203" xlink:href="#DejaVuSans-115"/>
      <use x="120.507812" xlink:href="#DejaVuSans-105"/>
      <use x="148.291016" xlink:href="#DejaVuSans-97"/>
      <use x="209.570312" xlink:href="#DejaVuSans-110"/>
     </g>
    </g>
    <g id="patch_312">
     <path d="M 280.639063 65.836563 
L 300.639063 65.836563 
L 300.639063 58.836563 
L 280.639063 58.836563 
z
" style="fill:#3ba9f5;"/>
    </g>
    <g id="text_32">
     <!-- Caucasian -->
     <g transform="translate(308.639063 65.836563)scale(0.1 -0.1)">
      <use xlink:href="#DejaVuSans-67"/>
      <use x="69.824219" xlink:href="#DejaVuSans-97"/>
      <use x="131.103516" xlink:href="#DejaVuSans-117"/>
      <use x="194.482422" xlink:href="#DejaVuSans-99"/>
      <use x="249.462891" xlink:href="#DejaVuSans-97"/>
      <use x="310.742188" xlink:href="#DejaVuSans-115"/>
      <use x="362.841797" xlink:href="#DejaVuSans-105"/>
      <use x="390.625" xlink:href="#DejaVuSans-97"/>
      <use x="451.904297" xlink:href="#DejaVuSans-110"/>
     </g>
    </g>
    <g id="patch_313">
     <path d="M 280.639063 80.514688 
L 300.639063 80.514688 
L 300.639063 73.514688 
L 280.639063 73.514688 
z
" style="fill:#989898;"/>
    </g>
    <g id="text_33">
     <!-- Afro-American -->
     <defs>
      <path d="M 4.890625 31.390625 
L 31.203125 31.390625 
L 31.203125 23.390625 
L 4.890625 23.390625 
z
" id="DejaVuSans-45"/>
     </defs>
     <g transform="translate(308.639063 80.514688)scale(0.1 -0.1)">
      <use xlink:href="#DejaVuSans-65"/>
      <use x="64.783203" xlink:href="#DejaVuSans-102"/>
      <use x="99.988281" xlink:href="#DejaVuSans-114"/>
      <use x="138.851562" xlink:href="#DejaVuSans-111"/>
      <use x="201.908203" xlink:href="#DejaVuSans-45"/>
      <use x="235.742188" xlink:href="#DejaVuSans-65"/>
      <use x="304.150391" xlink:href="#DejaVuSans-109"/>
      <use x="401.5625" xlink:href="#DejaVuSans-101"/>
      <use x="463.085938" xlink:href="#DejaVuSans-114"/>
      <use x="504.199219" xlink:href="#DejaVuSans-105"/>
      <use x="531.982422" xlink:href="#DejaVuSans-99"/>
      <use x="586.962891" xlink:href="#DejaVuSans-97"/>
      <use x="648.242188" xlink:href="#DejaVuSans-110"/>
     </g>
    </g>
   </g>
  </g>
 </g>
 <defs>
  <clipPath id="p1ccfb6e3f4">
   <rect height="217.44" width="334.8" x="54" y="34.56"/>
  </clipPath>
 </defs>
</svg>
